<svg xmlns="http://www.w3.org/2000/svg" xml:space="preserve" width="512" height="512" style="enable-background:new 0 0 512 512" viewBox="0 0 64 64">
  <g fill="#f07b2b">
    <path d="M48.7 17.69a6.16 6.16 0 0 0 6.15-6.15c-.28-8.14-12.01-8.14-12.3 0a6.16 6.16 0 0 0 6.15 6.15zm-4.66 20.83-3.53-3.49a1.11 1.11 0 0 1-.15-1.4l5.17-7.77c1.51-2 1.59-4.4-.9-6.72-1.63-.83-4.34-2.92-6.21-2.8l-9.34-.15a4.96 4.96 0 0 0-3.44 1.33l-6.23 5.84a3.67 3.67 0 0 0-1.17 2.63 3.71 3.71 0 0 0 6.29 2.66l3.84-3.84a1.85 1.85 0 0 1 1.4-.54l2.71.13c-4.12 5.82-7.68 9.61-.52 15.3.98.88 3.03 2.7 4.02 3.6a2.51 2.51 0 0 1 .84 1.87v9.26a4.17 4.17 0 0 0 8.35-.03l-.1-13.42a3.46 3.46 0 0 0-1.03-2.46z" data-original="#000000"/>
    <path d="m26.54 36.37-3.14 3.89a1.2 1.2 0 0 1-.92.43H14.9a4.03 4.03 0 0 0 0 8.06h11.01a3.14 3.14 0 0 0 2.5-1.24l3.79-4.98-1.47-1.3a14.96 14.96 0 0 1-4.18-4.86zm29.62-7.96h-4.74a1.24 1.24 0 0 1-.87-.35 539.76 539.76 0 0 1-2.53-2.48c-.11.28-3.75 5.72-4.47 6.78l1.29 1.3c1.05.9 2.37 2.64 3.94 2.5h7.38a3.88 3.88 0 0 0 0-7.75zM8.64 7.84h1.27a.98.98 0 1 0 0-1.95H8.64a.98.98 0 0 0 0 1.95zm6.03.22h7.36a.98.98 0 0 0 0-1.96h-7.36a.98.98 0 0 0 0 1.96zm2.4 3.67a.98.98 0 0 0 0 1.95h1.28a.98.98 0 1 0 0-1.95zM4.98 13.9h7.35a.98.98 0 0 0 0-1.96H4.96a.98.98 0 0 0 0 1.96zm1.27 42.24H4.96a.98.98 0 0 0 0 1.96h1.28a.98.98 0 0 0 0-1.96zm12.11-.22H11a.98.98 0 0 0 0 1.96h7.35a.98.98 0 0 0 0-1.96zm3.68-5.62h-1.28a.98.98 0 0 0 0 1.96h1.28a.98.98 0 0 0 0-1.96zm-5.06.76a.98.98 0 0 0-.98-.97H8.64a.98.98 0 1 0 0 1.95h7.35a.98.98 0 0 0 .98-.98z" data-original="#000000"/>
  </g>
</svg>
