<svg xmlns="http://www.w3.org/2000/svg" xml:space="preserve" width="512" height="512" style="enable-background:new 0 0 512 512" viewBox="0 0 64 64">
  <g fill="#f07b2b">
    <path d="M23 53v9a1 1 0 0 0 1 1h16a1 1 0 0 0 1-1v-9a7 7 0 0 0-5.86-6.9A6 6 0 0 0 32 35a6 6 0 0 0-3.14 11.1A7 7 0 0 0 23 53zm5-12a4 4 0 1 1 8 0 4 4 0 0 1-8 0zm2 7h4a5 5 0 0 1 5 5v8H25v-8a5 5 0 0 1 5-5zm14 5v8a1 1 0 0 0 1 1h14a1 1 0 0 0 1-1v-8a6.01 6.01 0 0 0-5.04-5.92 5.25 5.25 0 0 0 2.29-4.33 5.26 5.26 0 1 0-8.21 4.33A6 6 0 0 0 44 53zm4.75-10.25a3.26 3.26 0 0 1 6.5 0 3.26 3.26 0 0 1-6.5 0zM46 53a4 4 0 0 1 4-4h4a4 4 0 0 1 4 4v7H46zm-1-30V3a2 2 0 0 0-2-2H21a2 2 0 0 0-2 2v20c0 1.1.9 2 2 2h8.28l1.77 5.32a1 1 0 0 0 1.9 0L34.72 25H43a2 2 0 0 0 2-2zm-11 0c-.43 0-.81.28-.95.68L32 26.83l-1.05-3.15A1 1 0 0 0 30 23h-9V3h22v20z" data-original="#000000"/>
    <path d="M61 8H48v2h13v18h-7.29a1 1 0 0 0-.92.61L52 30.46l-.79-1.85a1 1 0 0 0-.92-.61H43v2h6.63l1.45 3.39c.16.37.52.61.92.61s.76-.24.92-.61L54.37 30H61a2 2 0 0 0 2-2V10a2 2 0 0 0-2-2zM4 53v8a1 1 0 0 0 1 1h14a1 1 0 0 0 1-1v-8a6.01 6.01 0 0 0-5.04-5.92 5.25 5.25 0 0 0 2.29-4.33 5.26 5.26 0 1 0-8.21 4.33A6 6 0 0 0 4 53zm4.75-10.25a3.26 3.26 0 0 1 6.5 0 3.26 3.26 0 0 1-6.5 0zM6 53a4 4 0 0 1 4-4h4a4 4 0 0 1 4 4v7H6zM3 30h6.63l1.45 3.39c.16.37.52.61.92.61s.76-.24.92-.61L14.37 30H21v-2h-7.29a1 1 0 0 0-.92.61L12 30.46l-.79-1.85a1 1 0 0 0-.92-.61H3V10h13V8H3a2 2 0 0 0-2 2v18c0 1.1.9 2 2 2zm34.44-19h-1.03l.53-2.11a2.3 2.3 0 0 0-1.49-2.77 2.28 2.28 0 0 0-2.81 1.36l-.99 2.65c-.19.52-.7.87-1.25.87H30a1 1 0 0 0-1-.99h-4a1 1 0 0 0-1 1v8a1 1 0 0 0 1 1h4c.49 0 .88-.36.96-.82l.98.65a1 1 0 0 0 .55.17H37c1.3 0 2.4-.98 2.54-2.28l.43-3.9a2.55 2.55 0 0 0-2.55-2.84zM28 18.01h-2v-6h2zm9.56-.5a.56.56 0 0 1-.55.5H31.8l-1.25-.83a.99.99 0 0 0-.55-.17V13h.39c1.38 0 2.64-.87 3.13-2.17l.99-2.65a.27.27 0 0 1 .34-.16c.12.04.19.22.15.37l-.84 3.36a1 1 0 0 0 .97 1.24h2.31c.22 0 .35.12.42.19s.16.22.14.43l-.43 3.9z" data-original="#000000"/>
    <path d="m51.12 22.5 1.71 1.3a1 1 0 0 0 1.2 0l1.71-1.3a10.7 10.7 0 0 0 2.71-3.04c.84-1.39.68-3.2-.4-4.39A3.15 3.15 0 0 0 55.69 14c-.86 0-1.66.35-2.27.98a3.15 3.15 0 0 0-4.63.09 3.73 3.73 0 0 0-.4 4.39 10.7 10.7 0 0 0 2.71 3.04zm-.83-6.09c.24-.27.55-.41.87-.41s.64.15.88.41l.66.73c.38.42 1.11.42 1.48 0l.66-.73a1.16 1.16 0 0 1 1.75 0c.47.53.55 1.39.17 2.02a8.78 8.78 0 0 1-2.21 2.48l-1.11.84-1.11-.84a8.65 8.65 0 0 1-2.21-2.48c-.38-.62-.3-1.49.17-2.02zM6.5 14.5h2v2h-2zm5 0h2v2h-2zm-1.5 9a5 5 0 0 0 5-5h-2c0 1.65-1.35 3-3 3s-3-1.35-3-3H5a5 5 0 0 0 5 5z" data-original="#000000"/>
  </g>
</svg>
