<svg xmlns="http://www.w3.org/2000/svg" xml:space="preserve" width="512" height="512" style="enable-background:new 0 0 512 512" viewBox="0 0 64 64">
  <g fill="#f07b2b">
    <circle cx="22.92" cy="14.84" r="5.82" data-original="#000000"/>
    <path d="M10.84 59.86a1 1 0 0 0 1.37-.35l3.9-6.66a8.66 8.66 0 0 0 4.78 1.44h7.58a.93.93 0 0 1 .83.52l2.26 4.63a1 1 0 1 0 1.8-.88l-2.26-4.63a2.95 2.95 0 0 0-2.63-1.64h-7.58a6.72 6.72 0 0 1-6.72-6.72V22.93a1 1 0 0 0-2 0v22.64a8.68 8.68 0 0 0 2.39 5.97l-4.07 6.95a1 1 0 0 0 .35 1.37zm33.8-37.85a9 9 0 1 0-9-9 9.02 9.02 0 0 0 9 9zm-1-12.86a1 1 0 0 1 2 0v2.86h1.6a1 1 0 0 1 0 2h-2.6a1 1 0 0 1-1-1z" data-original="#000000"/>
    <path d="M22.92 22.57a5.56 5.56 0 0 0-5.55 5.55v16.31a4.86 4.86 0 0 0 4.85 4.86h5.25l.1-.01 6.01-.02 4.47 9.06a1.44 1.44 0 0 0 .37.42l.03.01a1 1 0 0 0 .5.14h.02a.93.93 0 0 0 .38-.09h.04l5.27-2.57a1 1 0 0 0-.87-1.8l-.79.38-4.32-8.78a4.93 4.93 0 0 0-4.42-2.74h-5.79V28.12a5.56 5.56 0 0 0-5.55-5.55z" data-original="#000000"/>
  </g>
</svg>
