<svg xmlns="http://www.w3.org/2000/svg" xml:space="preserve" width="512" height="512" style="enable-background:new 0 0 512 512">
  <path fill="#f07b2b" fill-rule="evenodd" d="m256.7 44.44 12.12 31.93a2.48 2.48 0 0 0 2.24 1.62l34.1 1.67a2.53 2.53 0 0 1 1.47 4.49L280 105.55a2.48 2.48 0 0 0-.86 2.62l8.96 32.96a2.53 2.53 0 0 1-3.82 2.77l-28.57-18.7a2.48 2.48 0 0 0-2.77 0l-28.57 18.7a2.53 2.53 0 0 1-3.82-2.77l8.96-32.96a2.48 2.48 0 0 0-.86-2.63l-26.62-21.4a2.53 2.53 0 0 1 1.46-4.48l34.11-1.67a2.48 2.48 0 0 0 2.24-1.62l12.12-31.93a2.53 2.53 0 0 1 4.73 0zM415 307.16a81 81 0 1 1 0 162.02 81 81 0 0 1 0-162.02zm-10.65 88.16-18.1-18.1a12.02 12.02 0 0 0-17 16.99l26.63 26.62c4.7 4.7 12.3 4.7 17 0 16.04-16.04 31.9-32.27 47.88-48.4a12 12 0 0 0-17.02-16.9zM254.34 173.06a60.16 60.16 0 1 1 0 120.32 60.16 60.16 0 0 1 0-120.32zm-106.6 236.5h172.62a97.35 97.35 0 0 1-2.38-21.39 96.56 96.56 0 0 1 16.34-53.88 118.53 118.53 0 0 0-79.98-30.9c-57.18 0-104.94 40.33-116.38 94.1a9.97 9.97 0 0 0 9.78 12.08zM492.1 183.09l-21.6 26.46a2.48 2.48 0 0 0-.28 2.75l15.62 30.37a2.53 2.53 0 0 1-3.16 3.51l-31.84-12.35a2.48 2.48 0 0 0-2.7.57l-24.07 24.24a2.53 2.53 0 0 1-4.31-1.92l1.9-34.1a2.48 2.48 0 0 0-1.37-2.4l-30.5-15.39a2.53 2.53 0 0 1 .5-4.7l33.02-8.71a2.48 2.48 0 0 0 1.85-2.06l5.22-33.75a2.53 2.53 0 0 1 4.62-.98l18.5 28.7a2.48 2.48 0 0 0 2.53 1.13l33.7-5.46a2.53 2.53 0 0 1 2.37 4.09zM392.97 82.22a2.53 2.53 0 0 0-4.09-2.36l-26.46 21.59a2.48 2.48 0 0 1-2.75.29l-30.38-15.62a2.53 2.53 0 0 0-3.5 3.16l12.35 31.84a2.48 2.48 0 0 1-.57 2.7l-24.24 24.07a2.52 2.52 0 0 0 1.92 4.31l34.1-1.91a2.48 2.48 0 0 1 2.4 1.38l15.39 30.49a2.53 2.53 0 0 0 4.7-.5l8.71-33.02a2.48 2.48 0 0 1 2.06-1.85l33.75-5.22a2.53 2.53 0 0 0 .98-4.61l-28.7-18.5a2.48 2.48 0 0 1-1.13-2.53zM18.93 178.99l33.71 5.46a2.48 2.48 0 0 0 2.53-1.12l18.5-28.71a2.53 2.53 0 0 1 4.62.98l5.22 33.75a2.48 2.48 0 0 0 1.85 2.06l33.02 8.72c2.24.59 2.56 3.64.5 4.7l-30.5 15.39a2.48 2.48 0 0 0-1.38 2.4l1.91 34.09a2.53 2.53 0 0 1-4.3 1.92L60.53 234.4a2.48 2.48 0 0 0-2.7-.57l-31.85 12.35a2.53 2.53 0 0 1-3.16-3.5l15.62-30.38c.47-.91.36-1.96-.29-2.75l-21.59-26.47a2.53 2.53 0 0 1 2.36-4.08zM119.8 79.86a2.53 2.53 0 0 0-4.1 2.36l5.47 33.71a2.48 2.48 0 0 1-1.12 2.53l-28.71 18.5a2.53 2.53 0 0 0 .98 4.61l33.75 5.22a2.48 2.48 0 0 1 2.06 1.85l8.72 33.02a2.53 2.53 0 0 0 4.7.5l15.39-30.5a2.48 2.48 0 0 1 2.4-1.37l34.1 1.9a2.53 2.53 0 0 0 1.91-4.3l-24.24-24.07a2.48 2.48 0 0 1-.57-2.7l12.35-31.84a2.53 2.53 0 0 0-3.5-3.16L149 101.73a2.48 2.48 0 0 1-2.75-.29z" clip-rule="evenodd" data-original="#000000"/>
</svg>
