<svg xmlns="http://www.w3.org/2000/svg" xml:space="preserve" width="512" height="512" style="enable-background:new 0 0 512 512" viewBox="0 0 64 64">
  <g fill="#f07b2b" data-name="Building Girl">
    <path d="M54 62h-1V50.27a15 15 0 0 0-.77-4.75l-1.53-4.59a8.24 8.24 0 0 0-1.09-2.13.18.18 0 0 1-.04-.05 7.83 7.83 0 0 0-2.44-2.21q-1.34-.76-2.91-1.47c2.71-3.13 3.96-6.03 3.71-8.63a6.08 6.08 0 0 0-1.87-3.85 10.2 10.2 0 0 0 .91-2.35c.65-2.61-.76-4.8-2.16-6.24H45a1 1 0 0 0 0-2h-1.05c-.39-6.37-4.4-8.92-5.99-9.68l.02-.14a1 1 0 0 0-.27-.89l-1-1A1.03 1.03 0 0 0 36 0h-8a1.03 1.03 0 0 0-.71.29l-1 1a1 1 0 0 0-.27.89l.02.14c-1.59.76-5.6 3.31-5.99 9.68H19a1 1 0 0 0 0 2h.19c-1.4 1.44-2.81 3.63-2.16 6.24a10.38 10.38 0 0 0 .91 2.35 6.06 6.06 0 0 0-1.86 3.76c-.29 2.62.97 5.55 3.71 8.72a29.77 29.77 0 0 0-2.92 1.48 7.74 7.74 0 0 0-2.43 2.19l-.05.06a8.24 8.24 0 0 0-1.09 2.13l-1.53 4.6a14.99 14.99 0 0 0-.77 4.74V62h-1a1 1 0 0 0 0 2h44a1 1 0 0 0 0-2Zm-7.87-23.72a5.72 5.72 0 0 1 1.42 1.17A30.88 30.88 0 0 0 43.57 51H33v-3.39a16.8 16.8 0 0 0 3.95-3.07 21.94 21.94 0 0 0 1.23 2.03.98.98 0 0 0 .82.43.96.96 0 0 0 .43-.1.99.99 0 0 0 .53-1.17 9.8 9.8 0 0 1 2.75-9.02.57.57 0 0 1 .07-.08 29.06 29.06 0 0 1 3.35 1.65ZM31 55H20.54c.04-.67.05-1.34.04-2H31Zm1-22.12-3.31-1.65.9-3.5a10.89 10.89 0 0 0 4.82 0l.9 3.5Zm2.99.74a8.32 8.32 0 0 0-.39 1.78l-.32.21-.82-1.22Zm-4.45.77-.82 1.22-4.15-2.77.63-.62Zm-1.09 3.44A.94.94 0 0 0 30 38a1 1 0 0 0 .83-.45L32 35.8l1.17 1.75a.96.96 0 0 0 .63.43.98.98 0 0 0 .75-.15l.08-.05a18.01 18.01 0 0 0 1.38 4.82A15.42 15.42 0 0 1 32 45.88a16.64 16.64 0 0 1-7.78-10.37c.38-.13.78-.25 1.19-.37ZM33 53h10.42c-.01.66 0 1.33.04 2H33Zm10-37.97c1.17 1.07 2.51 2.79 2.03 4.73a10.68 10.68 0 0 1-1.93 3.76A8.69 8.69 0 0 0 41 29a1 1 0 0 0 2 0 6.79 6.79 0 0 1 1.73-4.33l.24-.34a4.16 4.16 0 0 1 .97 2.35c.21 2.38-1.39 5.36-4.65 8.61a11.73 11.73 0 0 0-3.4 6.58c-1.35-3.09-2.4-7.48.75-10.1a1 1 0 0 0-1.09-1.66l-.41.2-.82-3.2A11.02 11.02 0 0 0 43 17ZM37.58 4.39A9.1 9.1 0 0 1 41.95 12H36.2ZM28.41 2h7.18l.33.34L34.17 12h-4.34l-1.75-9.66ZM41 14v3a9 9 0 0 1-18 0v-3ZM26.42 4.38 27.8 12h-5.76c.34-4.67 2.96-6.81 4.38-7.62Zm-8.35 22.24a4.15 4.15 0 0 1 .96-2.29l.24.34A6.79 6.79 0 0 1 21 29a1 1 0 0 0 2 0 8.69 8.69 0 0 0-2.1-5.48 10.68 10.68 0 0 1-1.93-3.76c-.48-1.93.86-3.65 2.03-4.72V17a11.02 11.02 0 0 0 6.68 10.11l-.82 3.2-.41-.2a1 1 0 0 0-1.16.18l-2 2a1.05 1.05 0 0 0-.29.81.99.99 0 0 0 .32.6c-.55.19-1.08.37-1.57.56-2.62-2.87-3.9-5.51-3.68-7.64Zm-.2 11.66a31.87 31.87 0 0 1 4.47-2.1A18.44 18.44 0 0 0 31 47.61V51H20.43a30.88 30.88 0 0 0-3.98-11.55 5.72 5.72 0 0 1 1.42-1.17ZM16.37 62H13V50.27a12.78 12.78 0 0 1 .67-4.11l1.53-4.6a.85.85 0 0 0 .06-.14 27.88 27.88 0 0 1 3.26 10.56V52l.01.05A16.89 16.89 0 0 1 16.37 62Zm3.92-5H31v5H18.64a17.78 17.78 0 0 0 1.65-5ZM33 62v-5h10.71a17.78 17.78 0 0 0 1.65 5Zm18 0h-3.37a16.89 16.89 0 0 1-2.16-9.95l.01-.05v-.02a27.88 27.88 0 0 1 3.26-10.56l.06.15 1.53 4.59a12.69 12.69 0 0 1 .67 4.11Z" data-original="#000000"/>
    <path d="M31 41h2a1 1 0 0 0 0-2h-2a1 1 0 0 0 0 2Zm0 3h2a1 1 0 0 0 0-2h-2a1 1 0 0 0 0 2Z" data-original="#000000"/>
  </g>
</svg>
