<svg xmlns="http://www.w3.org/2000/svg" xml:space="preserve" width="512" height="512" style="enable-background:new 0 0 512 512" viewBox="0 0 64 64">
  <g fill="#f07b2b">
    <path d="M5.13 38.49A1 1 0 0 0 6 39h6v9a4 4 0 0 0 4 4h2v11h2V52h8v-2H16a2 2 0 0 1-2-2V38a1 1 0 0 0-1-1H7.77l5.09-8.49c.1-.17.15-.37.14-.57-.05-.82-.97-20.14 15.99-24.28 6.14-1.51 11.91-.36 16.34 3.16l1.64-1.25C42.03 1.41 35.48.01 28.51 1.71 11.17 5.95 10.93 25.02 10.99 27.74l-5.85 9.75a1 1 0 0 0-.01 1zm41.32 8.24a400.2 400.2 0 0 0 1.62-3.81 84.94 84.94 0 0 1 2.8-5.85c.64-1.27 1.31-2.59 1.93-3.91a23.94 23.94 0 0 0-1.21-22.12l-1.42 1.54a21.89 21.89 0 0 1 .82 19.73c-.61 1.29-1.27 2.6-1.91 3.86a91.2 91.2 0 0 0-2.85 5.97 314.1 314.1 0 0 1-1.62 3.81l-.38.89c-3.33 7.79-1.97 15.98-1.91 16.33l1.97-.34c-.02-.08-1.32-7.95 1.78-15.2z" data-original="#000000"/>
    <path d="M41.74 35.53c.33 0 .69-.06 1.07-.2 2.78-1.02 5.51-8.51 5.51-13.36 0-2.46-.49-4.4-1.27-5.99l-1.47 1.59c.48 1.23.74 2.65.74 4.4 0 4.68-2.74 10.95-4.2 11.48-.81.3-1.53-.46-2.86-2.14-.84-1.06-1.78-2.27-2.99-2.97a9.63 9.63 0 0 0-4.98-1.29c-1.45 0-2.83.25-4.07.47-1.86.34-3.47.63-4.47-.05-.99-.67-1.63-2.13-1.76-4.01-.02-.25-.03-.5-.03-.76 0-3.3 1.43-6.83 3.62-8.8 3.06-2.75 5.53-3.41 8.76-3.61 1.72-.12 4.06.25 6.05 1.05l1.82-1.39a17.27 17.27 0 0 0-8-1.66c-3.58.23-6.49 1-9.97 4.13-3.26 2.94-4.49 7.73-4.25 11.17.18 2.54 1.12 4.51 2.64 5.54 1.68 1.13 3.75.76 5.95.36 2.52-.45 5.12-.92 7.68.57.88.52 1.67 1.52 2.43 2.48 1.11 1.42 2.35 2.99 4.05 2.99z" data-original="#000000"/>
    <path d="M54.74 3.33a.99.99 0 0 0-1.34-.12L35.52 16.8l-4.42-2.65a1 1 0 0 0-.79-.1c-.27.08-.49.26-.62.51l-1 2a.99.99 0 0 0 .14 1.1l6 7c.19.22.46.34.74.35h.02c.28 0 .55-.12.74-.32L54.74 4.68a1 1 0 0 0 0-1.35zM35.61 22.5l-4.83-5.64.22-.44 4.07 2.44a1 1 0 0 0 1.12-.06l9.42-7.16z" data-original="#000000"/>
  </g>
</svg>
