<svg xmlns="http://www.w3.org/2000/svg" xml:space="preserve" width="512" height="512" style="enable-background:new 0 0 512 512">
  <g fill="#f07b2b">
    <path d="M460.8 68.27H51.2A51.25 51.25 0 0 0 0 119.47V358.4a51.25 51.25 0 0 0 51.2 51.2h8.53v8.53a25.6 25.6 0 0 0 25.6 25.6h25.6a25.6 25.6 0 0 0 25.6-25.6v-8.53h238.94v8.53a25.6 25.6 0 0 0 25.6 25.6h25.6a25.6 25.6 0 0 0 25.6-25.6v-8.53h8.53a51.25 51.25 0 0 0 51.2-51.2V119.47a51.25 51.25 0 0 0-51.2-51.2zM119.47 418.13a8.53 8.53 0 0 1-8.54 8.54h-25.6a8.53 8.53 0 0 1-8.53-8.54v-8.53h42.67v8.53zm315.73 0a8.53 8.53 0 0 1-8.53 8.54h-25.6a8.53 8.53 0 0 1-8.54-8.54v-8.53h42.67zm59.73-59.73a34.13 34.13 0 0 1-34.13 34.13H51.2a34.13 34.13 0 0 1-34.13-34.13V119.47A34.13 34.13 0 0 1 51.2 85.33h409.6a34.13 34.13 0 0 1 34.13 34.14z" data-original="#000000"/>
    <path d="M170.67 102.4c-75.4 0-136.54 61.13-136.54 136.53s61.13 136.54 136.54 136.54S307.2 314.34 307.2 238.93c-.09-75.37-61.16-136.44-136.53-136.53zm0 256c-65.98 0-119.47-53.49-119.47-119.47s53.49-119.46 119.47-119.46 119.46 53.48 119.46 119.46c-.07 65.95-53.51 119.4-119.46 119.47z" data-original="#000000"/>
    <path d="M221.79 208.06a40.6 40.6 0 0 1-11.4 8.17 32.03 32.03 0 0 1-3.41 1.44 69.03 69.03 0 0 0 13.28-34.08 37.44 37.44 0 0 0-10.42-30.67 53.91 53.91 0 0 0-18.77-12.32 46.7 46.7 0 0 0-40.06.86 32.11 32.11 0 0 0-17.18 18.24 25.45 25.45 0 0 0 5.86 28.05 41.28 41.28 0 0 1 8.18 11.4 31.96 31.96 0 0 1 1.41 3.35 68.9 68.9 0 0 0-34.07-13.2 37.6 37.6 0 0 0-30.57 10.38 53.97 53.97 0 0 0-12.3 18.77 46.64 46.64 0 0 0 .86 40.1 32.24 32.24 0 0 0 18.2 17.07 30.75 30.75 0 0 0 10.24 1.9 25.1 25.1 0 0 0 17.92-7.69 40.58 40.58 0 0 1 11.41-8.16 29.34 29.34 0 0 1 3.3-1.41 69.12 69.12 0 0 0-13.2 34.05 37.54 37.54 0 0 0 10.34 30.66 54 54 0 0 0 18.78 12.3 50.34 50.34 0 0 0 19.43 4.06 46.22 46.22 0 0 0 20.67-4.95 32.18 32.18 0 0 0 17.12-18.23 25.46 25.46 0 0 0-5.86-28.02 41.26 41.26 0 0 1-8.16-11.43 31.57 31.57 0 0 1-1.42-3.31 69.12 69.12 0 0 0 34.06 13.2c1.45.16 2.9.24 4.35.24a37.45 37.45 0 0 0 26.31-10.64 54.1 54.1 0 0 0 12.32-18.78 46.7 46.7 0 0 0-.91-40.1 32.23 32.23 0 0 0-18.19-17.07 25.41 25.41 0 0 0-28.12 5.82zm-72.46 30.87a21.33 21.33 0 0 1 21.34-21.33 21.33 21.33 0 0 1-.06 42.67 21.33 21.33 0 0 1-21.28-21.34zm.66-73.5c1.58-3.9 4.68-7 8.59-8.57a29.93 29.93 0 0 1 26-.45 36.94 36.94 0 0 1 12.97 8.36 20.31 20.31 0 0 1 5.77 17.07 51.66 51.66 0 0 1-10.24 26.05 38.03 38.03 0 0 0-22.34-7.33c-1.38.07-2.75.2-4.12.42a39.91 39.91 0 0 0-3.27-9.24 59.07 59.07 0 0 0-11.5-16.04 8.53 8.53 0 0 1-1.86-10.3zm-26.54 80.95a57.83 57.83 0 0 0-16 11.46 8.53 8.53 0 0 1-10.34 1.78 15.58 15.58 0 0 1-8.6-8.54 29.87 29.87 0 0 1-.42-26.02 37.04 37.04 0 0 1 8.34-12.99 20.37 20.37 0 0 1 17.07-5.74 52.34 52.34 0 0 1 26.1 10.24 38.05 38.05 0 0 0-7.33 22.3c.06 1.4.2 2.79.41 4.17a39 39 0 0 0-9.23 3.3zm67.85 66.16a15.51 15.51 0 0 1-8.53 8.53 29.87 29.87 0 0 1-26 .47 37 37 0 0 1-12.98-8.35 20.4 20.4 0 0 1-5.75-17.1A51.76 51.76 0 0 1 148.28 270a37.97 37.97 0 0 0 22.3 7.34h.09c1.38-.06 2.75-.19 4.12-.4a39.17 39.17 0 0 0 3.31 9.22 58.69 58.69 0 0 0 11.44 16.04 8.6 8.6 0 0 1 1.76 10.29v.04zm61.95-59.65a36.86 36.86 0 0 1-8.33 12.97 20.48 20.48 0 0 1-17.12 5.77 52.44 52.44 0 0 1-26.08-10.24 33.65 33.65 0 0 0 6.93-26.45 38.96 38.96 0 0 0 9.24-3.3 57.86 57.86 0 0 0 16.03-11.49 8.53 8.53 0 0 1 10.3-1.76 15.66 15.66 0 0 1 8.54 8.54 29.93 29.93 0 0 1 .5 25.92zM460.8 110.93h-34.13a8.53 8.53 0 0 0 0 17.07h34.13a8.53 8.53 0 1 0 0-17.07z" data-original="#000000"/>
    <circle cx="426.67" cy="153.6" r="8.53" data-original="#000000"/>
    <circle cx="460.8" cy="153.6" r="8.53" data-original="#000000"/>
    <path d="M460.8 179.2H349.87a8.53 8.53 0 0 0 0 17.07H460.8a8.53 8.53 0 0 0 0-17.07zm0 34.13H349.87a8.53 8.53 0 0 0 0 17.07H460.8a8.53 8.53 0 0 0 0-17.07zm0 34.14H349.87a8.53 8.53 0 0 0 0 17.06H460.8a8.53 8.53 0 0 0 0-17.06zm0 34.13H349.87a8.53 8.53 0 0 0 0 17.07H460.8a8.53 8.53 0 0 0 0-17.07zm0 34.13H349.87a8.53 8.53 0 0 0 0 17.07H460.8a8.53 8.53 0 1 0 0-17.07zm0 34.14H349.87a8.53 8.53 0 0 0 0 17.06H460.8a8.53 8.53 0 1 0 0-17.06z" data-original="#000000"/>
  </g>
</svg>
