<svg xmlns="http://www.w3.org/2000/svg" xml:space="preserve" width="512" height="512" style="enable-background:new 0 0 512 512">
  <g fill="#f07b2b">
    <path d="M498 32h-7V8a8 8 0 0 0-8-8h-62a8 8 0 0 0-8 8v24h-9a8 8 0 0 0-8 8v25a8 8 0 0 0 8 8h9v24a8 8 0 0 0 8 8 8 8 0 0 0 8-8V73h46v115c0 48-39 88-88 88h-59v-48h62a40 40 0 0 0 39-40v-49a8 8 0 0 0-8-8 8 8 0 0 0-8 8v49a24 24 0 0 1-23 24h-62v-11a8 8 0 0 0-8-8h-26a8 8 0 0 0-8 8v11h-18v-56h9a29 29 0 0 0 28 21 29 29 0 0 0 0-58 29 29 0 0 0-28 21h-33a29 29 0 0 0-28-21 29 29 0 0 0 0 58 29 29 0 0 0 28-21h8v56h-18v-11a8 8 0 0 0-8-8h-25a8 8 0 0 0-8 8v11h-66c-57 0-104 46-104 103v36a8 8 0 0 0 8 8 8 8 0 0 0 8-8v-36c0-48 39-87 88-87h66v48h-68a40 40 0 0 0-40 39v122H39v-43a8 8 0 0 0-8-8 8 8 0 0 0-8 8v43h-9a8 8 0 0 0-8 8v25a8 8 0 0 0 8 8h9v24a8 8 0 0 0 8 8h62a8 8 0 0 0 8-8v-24h7a8 8 0 0 0 8-8v-25a8 8 0 0 0-8-8h-7V315a24 24 0 0 1 24-23h68v11a8 8 0 0 0 8 8h25a8 8 0 0 0 8-8v-11h52v11a8 8 0 0 0 8 8h26a8 8 0 0 0 8-8v-11h59c57 0 104-47 104-104V73h7a8 8 0 0 0 8-8V40a8 8 0 0 0-8-8zM305 135a13 13 0 1 1-13 13c0-7 5-13 13-13zm-89 26a13 13 0 0 1 0-26 13 13 0 0 1 0 26zM85 494H39v-16h46v16zm15-32H22v-9h78v9zm118-167h-9v-86h9v86zm68-19h-52v-48h52v48zm26 19h-10v-86h10v86zM429 16h46v16h-46V16zm61 41h-78v-9h78v9z" data-original="#000000"/>
    <path d="M302 373a8 8 0 0 0-14 8c22 38 26 55 26 62a54 54 0 0 1-107 0c0-23 34-77 53-105a790 790 0 0 1 11 15 8 8 0 1 0 13-9l-17-25a8 8 0 0 0-13 0c-7 9-63 88-63 124a70 70 0 0 0 139 0c0-15-9-38-28-70z" data-original="#000000"/>
    <path d="M280 386a8 8 0 0 0-14 8c22 37 22 48 22 49 0 15-12 28-28 28a8 8 0 0 0 0 16c25 0 44-20 44-44 0-4-2-18-24-57z" data-original="#000000"/>
  </g>
</svg>
