<svg xmlns="http://www.w3.org/2000/svg" xml:space="preserve" width="512" height="512" style="enable-background:new 0 0 512 512" viewBox="0 0 511.28 511.28">
  <g fill="#f07b2b">
    <path d="M470.38 186.65H439.9v-3.42c0-8.52-6.93-15.44-15.44-15.44h-60.1a7.5 7.5 0 1 0 0 15h60.1c.24 0 .44.2.44.44v91.45a7.5 7.5 0 1 0 15 0v-73.03h30.48c1 0 1.83.83 1.83 1.84v261.66a31.16 31.16 0 0 1-31.12 31.13H70.19a31.16 31.16 0 0 1-31.13-31.13V203.5c0-1.01.83-1.84 1.84-1.84h31.47v256.52a19.2 19.2 0 0 0 19.18 19.18h329.17a19.2 19.2 0 0 0 19.18-19.18v-151.5a7.5 7.5 0 1 0-15 0V414.6H303.56a54.76 54.76 0 0 0-39.92 17.26v-97.01a7.5 7.5 0 1 0-15 0v97.01a54.76 54.76 0 0 0-39.92-17.26h-34.08a7.5 7.5 0 1 0 0 15h34.08a39.98 39.98 0 0 1 39.26 32.75H91.56a4.18 4.18 0 0 1-4.19-4.18V429.6h55.28a7.5 7.5 0 1 0 0-15H87.37V183.23c0-.24.2-.44.45-.44h60.1a7.5 7.5 0 1 0 0-15h-60.1a15.47 15.47 0 0 0-15.45 15.44v3.42H40.9a16.86 16.86 0 0 0-16.84 16.84v261.66a46.18 46.18 0 0 0 46.13 46.13h370.9a46.18 46.18 0 0 0 46.12-46.13V203.5c0-9.28-7.55-16.84-16.83-16.84zM303.56 429.6H424.9v28.57a4.18 4.18 0 0 1-4.18 4.18H264.3a39.98 39.98 0 0 1 39.26-32.75z" data-original="#000000"/>
    <path d="M156.14 105.23a7.5 7.5 0 0 0 8.17-6.76 91.97 91.97 0 0 1 29.58-59.3A91.98 91.98 0 0 1 256.14 15c50.86 0 92.24 41.38 92.24 92.24 0 19.14-5.8 37.5-16.8 53.08a9.67 9.67 0 0 0-.18.27l-48 74.72a7.5 7.5 0 0 0-1.18 4.05v9.72a3.58 3.58 0 0 1-3.58 3.58h-.49l4.78-81.08h8.54a22.2 22.2 0 0 0 22.18-22.17v-.91a22.2 22.2 0 0 0-22.17-22.17 22.2 22.2 0 0 0-22.14 20.87l-.55 9.38h-26.3l-.56-9.38a22.2 22.2 0 0 0-22.13-20.87 22.2 22.2 0 0 0-22.17 22.17v.9a22.2 22.2 0 0 0 22.17 22.18h8.55l4.77 81.02a3.57 3.57 0 0 1-3.06-3.52v-9.72a7.5 7.5 0 0 0-1.19-4.05l-48-74.72a7.83 7.83 0 0 0-.18-.27A91.38 91.38 0 0 1 166.25 128a7.5 7.5 0 0 0-14.62 3.36 106.32 106.32 0 0 0 16.71 37.48l46.72 72.73v7.52a18.6 18.6 0 0 0 11.08 16.98v12.68a24.23 24.23 0 0 0 24.2 24.2h11.6a24.23 24.23 0 0 0 24.2-24.2v-12.68a18.6 18.6 0 0 0 11.08-16.98v-7.52l46.72-72.73a106.56 106.56 0 0 0 19.44-61.59C363.38 48.11 315.28 0 256.14 0c-26.87 0-52.57 9.98-72.38 28.1a106.94 106.94 0 0 0-34.38 68.96 7.5 7.5 0 0 0 6.76 8.17zm128.18 42.85a7.18 7.18 0 0 1 7.16-6.75 7.18 7.18 0 0 1 7.17 7.17v.9a7.18 7.18 0 0 1-7.17 7.18h-7.66zm-64.52 8.5a7.18 7.18 0 0 1-7.17-7.17v-.91a7.18 7.18 0 0 1 7.17-7.17 7.18 7.18 0 0 1 7.16 6.75l.5 8.5zm48.1 15-4.77 81.07h-14.98l-4.78-81.07zm3.24 107.16c0 5.08-4.12 9.2-9.2 9.2h-11.6a9.21 9.21 0 0 1-9.2-9.2v-11.09h30v11.1zM387.51 56.95a7.47 7.47 0 0 0 4.95-1.86l16.36-14.37a7.5 7.5 0 0 0-9.9-11.27L382.57 43.8a7.5 7.5 0 0 0 4.95 13.14zm-4.95 45.23 16.37 14.37a7.47 7.47 0 0 0 4.94 1.87 7.5 7.5 0 0 0 4.95-13.14l-16.36-14.37a7.5 7.5 0 0 0-10.58.69 7.5 7.5 0 0 0 .68 10.58zm-279.1-61.46 16.36 14.37a7.47 7.47 0 0 0 4.94 1.86 7.5 7.5 0 0 0 4.95-13.14l-16.36-14.36a7.5 7.5 0 0 0-10.58.68 7.5 7.5 0 0 0 .68 10.59zm4.95 77.7a7.48 7.48 0 0 0 4.94-1.87l16.37-14.37a7.5 7.5 0 0 0-9.9-11.27l-16.36 14.37a7.5 7.5 0 0 0 4.95 13.14zm81.37 141.73a7.5 7.5 0 0 0-7.5-7.5H108.4a7.5 7.5 0 1 0 0 15h73.88a7.5 7.5 0 0 0 7.5-7.5zm15.35 30.66h-83.18a7.5 7.5 0 1 0 0 15h83.18a7.5 7.5 0 1 0 0-15zm0 36.54h-83.18a7.5 7.5 0 1 0 0 15h83.18a7.5 7.5 0 1 0 0-15zm0 36.54h-83.18a7.5 7.5 0 1 0 0 15h83.18a7.5 7.5 0 1 0 0-15zm206.25-103.74a7.5 7.5 0 0 0-7.5-7.5H330a7.5 7.5 0 1 0 0 15h73.87a7.5 7.5 0 0 0 7.5-7.5zm-21.05 30.66h-83.18a7.5 7.5 0 1 0 0 15h83.18a7.5 7.5 0 1 0 0-15zm0 36.54h-83.18a7.5 7.5 0 1 0 0 15h83.18a7.5 7.5 0 1 0 0-15zm0 36.54h-83.18a7.5 7.5 0 1 0 0 15h83.18a7.5 7.5 0 1 0 0-15z" data-original="#000000"/>
  </g>
</svg>
