<svg xmlns="http://www.w3.org/2000/svg" xml:space="preserve" width="512" height="512" style="enable-background:new 0 0 512 512">
  <g fill="#f07b2b">
    <path d="M467 1H45C20.19 1 0 21.19 0 46v420c0 24.81 20.19 45 45 45h422c24.81 0 45-20.19 45-45V46c0-24.81-20.19-45-45-45zM45 31h422c8.27 0 15 6.73 15 15v75H30V46c0-8.27 6.73-15 15-15zm422 450H45c-8.27 0-15-6.73-15-15V151h452v315c0 8.27-6.73 15-15 15z" data-original="#000000"/>
    <path d="M306.9 197.21a15 15 0 0 0-19.69 7.88l-90 210a15 15 0 1 0 27.58 11.82l90-210a15 15 0 0 0-7.88-19.7zm-129.19 49.42a15 15 0 0 0-21.08-2.34l-75 60a15 15 0 0 0 0 23.42l75 60a15 15 0 1 0 18.74-23.42L115.01 316l60.36-48.29a15 15 0 0 0 2.34-21.08zm252.66 57.66-75-60a15 15 0 1 0-18.74 23.42L396.99 316l-60.36 48.29a15 15 0 1 0 18.74 23.42l75-60a15 15 0 0 0 0-23.42z" data-original="#000000"/>
    <circle cx="76" cy="76" r="15" data-original="#000000"/>
    <circle cx="136" cy="76" r="15" data-original="#000000"/>
    <circle cx="196" cy="76" r="15" data-original="#000000"/>
    <path d="M346 91h90a15 15 0 0 0 0-30h-90a15 15 0 0 0 0 30z" data-original="#000000"/>
  </g>
</svg>
