<svg xmlns="http://www.w3.org/2000/svg" xml:space="preserve" width="512" height="512" style="enable-background:new 0 0 512 512" viewBox="0 0 511.94 511.94">
  <path fill="#f07b2b" d="M286.3 501.29c-8.28.56-16.55 1.05-24.82 1.46-2.98.15-6.5-8.1-9.47-7.97-2.02.08-3.5 8.56-5.52 8.63a1360.83 1360.83 0 0 1-98.64.26c-14.84-8.47.32-126.22 131.68-121.25a143.5 143.5 0 0 1 44.8 56.01c12.72 28.33-7.05 60.76-38.03 62.86z" data-original="#ff8a98"/>
  <path fill="#f07b2b" d="M208.44 379.73 138.2 498.16l-78.83-45c1.4-17.98 22.03-54.25 57.47-76.9l91.6 3.47z" data-original="#f95a71"/>
  <path fill="#ffbbae" d="M155.26 407.2c-17.35-6.63-31.07-17.6-38.42-30.94a142.46 142.46 0 0 1 30.38-14.67c64.55-10.89 63.83 27.44 8.04 45.62z" data-original="#ffbbae"/>
  <path fill="#f07b2b" d="M365.9 161.88H72.49C83.65 58.46 152.1 9.68 249.07 12.99c63.28 14.02 106.9 56.78 116.84 148.89z" data-original="#f95a71"/>
  <path fill="#f07b2b" d="M249.07 12.99c-63.28 14.02-106.91 56.78-116.85 148.89H21.58C34.2 44.88 101.18 7.5 193.74 7.5c19.69 0 38.23 1.69 55.33 5.49z" data-original="#ed3955"/>
  <path fill="#ffbbae" d="M47.31 253.62c-19.72 8.31-41.8-6.16-41.8-27.77a30.12 30.12 0 0 1 17.32-27.27c31.48-22.14 70.16 22.47 24.48 55.04z" data-original="#ffbbae"/>
  <path fill="#ffccbf" d="M340.17 253.62c19.73 8.31 41.8-6.16 41.8-27.77 0-12.07-7.14-22.4-17.36-27.3-47.43-22.67-61.94 35.55-24.44 55.07z" data-original="#ffccbf"/>
  <path fill="#ffded0" d="M343.66 232.67c-4.96 52.44-36.8 97.04-81.6 119.89-13.22 6.36-27.5 9.23-41.93 9.07-75.3-.77-155.01-83.67-113.11-181.96a673.45 673.45 0 0 1 17.55-7.45c52.55-4.88 111.55-4.22 169.34 3.07 17.36 12.95 34.04 31.58 49.75 57.38z" data-original="#ffded0"/>
  <path fill="#ffccbf" d="m235.15 365.5-6.5 3.12h-44.28c-74.04-4.55-133.6-62.59-140.54-135.95a183.75 183.75 0 0 1 56.9-57.92 746.89 746.89 0 0 1 33.44-3.34 119.1 119.1 0 0 0-27.15 8.26c-12.93 81.88 37.04 158.45 113.1 181.96 4.9 1.51 9.92 2.81 15.03 3.87z" data-original="#ffccbf"/>
  <ellipse cx="115.37" cy="264.68" fill="#ff9faa" data-original="#ff9faa" rx="28.92" ry="23.03"/>
  <ellipse cx="272.12" cy="264.68" fill="#ff9faa" data-original="#ff9faa" rx="28.92" ry="23.03"/>
  <path fill="#f07b2b" d="M101.4 186.05c-10.34 25.23-30.97 42.83-57.57 46.62A152.47 152.47 0 0 1 45 194.7a110.09 110.09 0 0 1 56.4-8.65z" data-original="#4a66a0"/>
  <path fill="#f07b2b" d="M286.08 186.05c10.35 25.23 30.98 42.83 57.58 46.62a152.49 152.49 0 0 0-1.17-37.96 89.34 89.34 0 0 0-56.41-8.66z" data-original="#687daa"/>
  <path fill="#ffc7a4" d="M276.57 105.26v15.3a30 30 0 0 1-14.11 25.45c-42.98 17.8-88.46 17.8-128.64 3.4a60.9 60.9 0 0 1 24.65-74.15h88.1a30 30 0 0 1 30 30z" data-original="#ffc7a4"/>
  <path fill="#f07b2b" d="M158.47 75.26c-11.76 19.53-20.17 43.97-24.65 74.15A173.6 173.6 0 0 1 125 146a30 30 0 0 1-14.1-25.44v-15.3a30 30 0 0 1 30-30h17.56z" data-original="#ffaa75"/>
  <path fill="#efedff" d="m237.26 400.17 2.33 9.84a20 20 0 0 1-14.85 24.07l-29.07 6.89c-8.64-11.55-7.93-27.48 1.24-37.68 10.04-11.15 27.82-12.8 40.35-3.12z" data-original="#efedff"/>
  <path fill="#efedff" d="M258.69 342.56h120.45v30.12H258.7z" data-original="#efedff" transform="rotate(-13.32 318.95 357.64)"/>
  <path fill="#f07b2b" d="m148.77 445.2 5.56-33.13a60 60 0 0 1 45.5-49.47l48.8-11.55a20 20 0 0 1 24.08 14.85l1.19 5.04A20 20 0 0 1 259.05 395l-38.82 9.19a30 30 0 0 0-22.75 24.73l-4.01 22.87a20 20 0 0 1-22.86 16.79l-21.84-23.38z" data-original="#687daa"/>
  <path fill="#83deff" d="m401.5 360.52 22.89 4.15a16.62 16.62 0 0 0 19.37-13.71c.65-4.11 2.9-7.8 6.18-10.35 11.43-8.88 6.82-27.1-7.46-29.49a16.41 16.41 0 0 1-10.36-6.16 16.62 16.62 0 0 0-23.56-2.85l-18.27 14.62c-12.61 14.88-6.4 37.02 11.22 43.8z" data-original="#83deff"/>
  <path fill="#d9d9f9" d="M394.63 326.6a62.78 62.78 0 0 0 5.87 24.78 14.53 14.53 0 0 1-9.9 20.22 14.58 14.58 0 0 1-15.76-6.53 63.19 63.19 0 0 1-9.28-39.19 14.57 14.57 0 0 1 11.16-12.9 14.53 14.53 0 0 1 17.91 13.63z" data-original="#d9d9f9"/>
  <path fill="#ffded0" d="M171.16 474.32a30.11 30.11 0 0 1-30.12 30.12h-6.43c-61.94 0-61.94-60.23 0-60.23h6.43a30.12 30.12 0 0 1 30.12 30.11z" data-original="#ffded0"/>
  <path fill="#ffccbf" d="M134.6 504.44H80.8a30.11 30.11 0 0 1 0-60.23h53.8a30.11 30.11 0 1 0 0 60.23z" data-original="#ffccbf"/>
  <path fill="#f07b2b" d="M381.98 180.21a18.4 18.4 0 0 1-22.31 17.96c-119.21-25.4-208.62-15.32-221.01-15.62-57.81-1.4-48.78-30.96-3-37.4 78.71-5.67 156.33.17 232.02 17.13a18.34 18.34 0 0 1 14.3 17.93z" data-original="#ff8a98"/>
  <path fill="#f07b2b" d="M139.45 182.53A796.21 796.21 0 0 0 27.69 198.2 18.38 18.38 0 0 1 5.5 180.21c0-8.64 6-16.07 14.43-17.97a795.83 795.83 0 0 1 115.73-17.09 18.82 18.82 0 0 0-15.84 18.58 18.82 18.82 0 0 0 19.62 18.8z" data-original="#f95a71"/>
  <path fill="none" stroke="#000" stroke-linecap="round" stroke-linejoin="round" stroke-miterlimit="10" stroke-width="15" d="M281.52 382.42a143.6 143.6 0 0 1 44.81 56c12.71 28.34-7.06 60.77-38.04 62.87a1362.6 1362.6 0 0 1-138.45 2.38m-88.48-50.5c.38-4.92 1.6-9.9 3.78-14.74a143.5 143.5 0 0 1 84.07-76.84M23.57 161.89C36.19 44.88 103.19 7.5 195.74 7.5c92.55 0 159.54 37.38 172.16 154.38m-219.92 77.74a13.77 13.77 0 0 0-27.53 0m123.04 0a13.77 13.77 0 0 1 27.53 0m-89.89 16.09a19.31 19.31 0 0 0 14.6 6.65c5.83 0 11.06-2.58 14.6-6.65" data-original="#000000" style="stroke-width:15;stroke-linecap:round;stroke-linejoin:round;stroke-miterlimit:10"/>
  <path fill="none" stroke="#000" stroke-linecap="round" stroke-linejoin="round" stroke-miterlimit="10" stroke-width="15" d="M143.03 504.44H82.79a30.12 30.12 0 0 1-30.11-30.12v0a30.12 30.12 0 0 1 30.11-30.12h60.24a30.12 30.12 0 0 1 0 60.24zm14.23-97.23c-17.35-6.64-31.08-17.61-38.43-30.95m225.65-181.55a150.64 150.64 0 0 1-80.42 157.85m-77.7 16.06C97.84 363.2 33.16 282.54 46.99 194.7" data-original="#000000" style="stroke-width:15;stroke-linecap:round;stroke-linejoin:round;stroke-miterlimit:10"/>
  <path fill="none" stroke="#000" stroke-linecap="round" stroke-linejoin="round" stroke-miterlimit="10" stroke-width="15" d="M49.3 253.62c-19.72 8.31-41.8-6.16-41.8-27.77a30.12 30.12 0 0 1 17.32-27.27m317.34 55.04c19.73 8.31 41.81-6.16 41.81-27.77 0-12.07-7.1-22.49-17.37-27.3" data-original="#000000" style="stroke-width:15;stroke-linecap:round;stroke-linejoin:round;stroke-miterlimit:10"/>
  <path fill="none" stroke="#000" stroke-linecap="round" stroke-linejoin="round" stroke-miterlimit="10" stroke-width="15" d="M75.27 152.2a795.86 795.86 0 0 1 294.4 10.08 18.35 18.35 0 0 1 14.3 17.93 18.41 18.41 0 0 1-22.3 17.96 795.63 795.63 0 0 0-331.99.03A18.37 18.37 0 0 1 7.5 180.2v0c0-8.64 6.01-16.08 14.43-17.96a796.3 796.3 0 0 1 23.22-4.84" data-original="#000000" style="stroke-width:15;stroke-linecap:round;stroke-linejoin:round;stroke-miterlimit:10"/>
  <path fill="none" stroke="#000" stroke-linecap="round" stroke-linejoin="round" stroke-miterlimit="10" stroke-width="15" d="M45.82 232.67c26.6-3.78 47.24-21.4 57.58-46.62m242.25 46.62c-26.6-3.78-47.24-21.4-57.58-46.62M127.01 146a29.98 29.98 0 0 1-14.1-25.44v-15.3a30 30 0 0 1 30-30h105.65a30 30 0 0 1 30 30v15.3a29.98 29.98 0 0 1-14.1 25.45m-8.49 313.25v43.85m-105.2-57.9 5.55-33.14a60 60 0 0 1 45.5-49.47l48.8-11.55a20 20 0 0 1 24.08 14.85l1.2 5.04A20 20 0 0 1 261.03 395l-38.82 9.19a30 30 0 0 0-22.75 24.73l-4.01 22.87a20 20 0 0 1-22.75 16.8l-.1-.01" data-original="#000000" style="stroke-width:15;stroke-linecap:round;stroke-linejoin:round;stroke-miterlimit:10"/>
  <path fill="none" stroke="#000" stroke-linecap="round" stroke-linejoin="round" stroke-miterlimit="10" stroke-width="15" d="m239.25 400.17 2.33 9.84a20 20 0 0 1-14.85 24.07l-29.07 6.89m69.92-86.2 99.71-23.6m-51.08 43.04-41.69 9.87m99.71-23.61-27.9 6.6m32.38-54.09a14.53 14.53 0 0 1 17.92 13.63 62.78 62.78 0 0 0 5.86 24.78 14.53 14.53 0 0 1-9.9 20.2 14.58 14.58 0 0 1-15.76-6.52 63.19 63.19 0 0 1-9.28-39.19 14.57 14.57 0 0 1 11.16-12.9h0z" data-original="#000000" style="stroke-width:15;stroke-linecap:round;stroke-linejoin:round;stroke-miterlimit:10"/>
  <path fill="none" stroke="#000" stroke-linecap="round" stroke-linejoin="round" stroke-miterlimit="10" stroke-width="15" d="m403.5 360.52 22.88 4.15a16.62 16.62 0 0 0 19.37-13.71c.65-4.11 2.9-7.8 6.18-10.35 11.43-8.88 6.82-27.1-7.46-29.49a16.41 16.41 0 0 1-10.36-6.16 16.62 16.62 0 0 0-23.55-2.85l-18.28 14.62m59.46-38.17 7.53-11.3m15.05 94.12 15.06 7.53m0-55.21 15.06-5.02" data-original="#000000" style="stroke-width:15;stroke-linecap:round;stroke-linejoin:round;stroke-miterlimit:10"/>
</svg>
