<svg xmlns="http://www.w3.org/2000/svg" xml:space="preserve" width="512" height="512" style="enable-background:new 0 0 512 512" viewBox="0 0 709 709.67">
  <path fill="#08627c" d="m12.07 709.93 19.52-142c2.47-19.52 14.9-75.65 41.96-95.5a155.35 155.35 0 0 1 26.02-14.37l9.69-4.16v105.57l-4.3 1.56c-14.3 5.27-28.3 12.56-28.3 39.04v95.88a3.25 3.25 0 0 0 3.26 3.25h424a3.31 3.31 0 0 0 3.25-3.25v-96.02c0-26.02-13.4-32.91-28.36-38.38l-4.29-1.55V454.16l9.23 4.29a156.93 156.93 0 0 1 25.38 14.05c32.52 23.68 41.89 94.78 42.02 95.5l19.51 142Zm0 0" data-original="#08627c" style="stroke:none;fill-rule:nonzero;fill-opacity:1"/>
  <path fill="#08627c" d="M563.31 709.93H19.5l18.66-141.16c2.41-19.12 14.32-72.72 39.36-91.07a151.91 151.91 0 0 1 25.24-13.85v91.07c-14.37 5.27-32.52 13.85-32.52 45.01v95.89a9.76 9.76 0 0 0 9.75 9.76h423.94a9.76 9.76 0 0 0 9.76-9.76v-95.89c0-31.16-18.28-39.02-32.53-44.49v-91.07a152.59 152.59 0 0 1 24.27 13.4c24.98 18.28 36.88 71.94 39.35 91.07Zm0 0" data-original="#08627c" style="stroke:none;fill-rule:nonzero;fill-opacity:1"/>
  <path fill="#f07b2b" d="M83.24 693.87v-92.64c0-35.97 28.56-40.33 29.73-40.46a3.26 3.26 0 0 0 2.86-3.25v-104.8l4.16-1.62c9.89-3.84 21.2-7.87 33.57-11.9l8.52-2.8v124.64a3.25 3.25 0 0 0 3.25 3.25h253.7a3.25 3.25 0 0 0 3.25-3.25V436.65l46.19 16.2v104.66a3.32 3.32 0 0 0 2.8 3.25c1.23 0 29.85 4.5 29.85 40.46v92.64H83.24ZM465.02 600v-4.49h-39.68V600Zm-306.2 0v-4.49h-40V600Zm0 0" data-original="#f66701" style="stroke:none;fill-rule:nonzero;fill-opacity:1"/>
  <path fill="#f07b2b" d="M469.96 567.22a9.83 9.83 0 0 1-8.45-9.7V457.34L428 445.83v115.2a9.76 9.76 0 0 1-9.76 9.76h-253.7a9.76 9.76 0 0 1-9.76-9.75V445.38a664.8 664.8 0 0 0-33.23 11.77v100.37a9.76 9.76 0 0 1-8.46 9.7c-2.41.32-24.14 4.55-24.14 34.02v86.12h405.2v-86.13c0-30.44-23.22-33.89-24.2-34.02Zm-304.89 39.03h-52.75V589h52.75Zm306.2 0h-52.7V589h52.7Zm0 0" data-original="#f66701" style="stroke:none;fill-rule:nonzero;fill-opacity:1"/>
  <path fill="#08627c" d="M168.32 557.78v-123.6l4.62-1.43c17.76-5.46 33.18-9.62 43.2-12.29l4.1-1.1 69.01 87.62a3.12 3.12 0 0 0 2.54 1.24 3 3 0 0 0 2.47-1.18l68.7-87.43 4.81 1.3c8.59 2.35 24.65 6.51 43.26 12.3l4.62 1.36v123.21Zm0 0" data-original="#08627c" style="stroke:none;fill-rule:nonzero;fill-opacity:1"/>
  <path fill="#08627c" d="M408.5 439.45v111.83H174.3V439.26a1152.5 1152.5 0 0 1 42.93-12.23L284.18 511a9.64 9.64 0 0 0 7.61 3.7 9.48 9.48 0 0 0 7.6-3.77l65.65-83.91c8.46 2.27 24.79 6.7 43.45 12.42Zm0 0" data-original="#08627c" style="stroke:none;fill-rule:nonzero;fill-opacity:1"/>
  <path fill="#e6a964" d="M224.72 414.87v-27.2l9.24 4.23a104.2 104.2 0 0 0 43.78 9.63h28.1a105 105 0 0 0 43.07-9.24l9.17-4.1v26.74l-66.35 84.57Zm0 0" data-original="#e6a964" style="stroke:none;fill-rule:nonzero;fill-opacity:1"/>
  <path fill="#e6a964" d="M351.57 398.21v14.44l-60.17 76.5-60.5-76.56v-14.77a111.29 111.29 0 0 0 46.51 10.21h28.1a111.84 111.84 0 0 0 46.06-9.82Zm0 0" data-original="#e6a964" style="stroke:none;fill-rule:nonzero;fill-opacity:1"/>
  <path fill="#fcc082" d="M428 268.11a16.72 16.72 0 0 1-16.71-16.71v-26.55a16.68 16.68 0 1 1 33.37 0v26.55c0 9.2-7.45 16.67-16.65 16.7Zm0 0" data-original="#fcc082" style="stroke:none;fill-rule:nonzero;fill-opacity:1"/>
  <path fill="#fcc082" d="M438.29 224.85v26.55a10.18 10.18 0 0 1-20.37 0v-26.55a10.18 10.18 0 0 1 20.37 0Zm0 0" data-original="#fcc082" style="stroke:none;fill-rule:nonzero;fill-opacity:1"/>
  <path fill="#f07b2b" d="m299.07 12.85 7.03.59a132.75 132.75 0 0 1 36.5 8.06l4.16 1.63v55.75l-1.04 1.62a54.45 54.45 0 0 1-39.03 23.3l-7.42 1.03Zm0 0" data-original="#d2590b" style="stroke:none;fill-rule:nonzero;fill-opacity:1"/>
  <path fill="#f07b2b" d="M340.25 27.62v49.37a47.69 47.69 0 0 1-34.67 20.36v-77.4a125.74 125.74 0 0 1 34.67 7.67Zm-55.36 76.17a54.26 54.26 0 0 1-39.02-23.29l-1.05-1.62V19.94l4.62-1.36a146.25 146.25 0 0 1 36.36-5.6h6.51v91.85Zm0 0" data-original="#d2590b" style="stroke:none;fill-rule:nonzero;fill-opacity:1"/>
  <path fill="#f07b2b" d="M286.07 19.49v78.06a47.95 47.95 0 0 1-34.74-20.36V25.14a138.57 138.57 0 0 1 34.74-5.65Zm0 0" data-original="#d2590b" style="stroke:none;fill-rule:nonzero;fill-opacity:1"/>
  <path fill="#fcc082" d="M155.51 268.11a16.72 16.72 0 0 1-16.72-16.71v-26.55a16.68 16.68 0 1 1 33.37 0v26.55c0 9.2-7.45 16.67-16.65 16.7Zm0 0" data-original="#fcc082" style="stroke:none;fill-rule:nonzero;fill-opacity:1"/>
  <path fill="#fcc082" d="M165.66 224.85v26.55a10.18 10.18 0 0 1-20.36 0v-26.55a10.18 10.18 0 0 1 20.36 0Zm0 0" data-original="#fcc082" style="stroke:none;fill-rule:nonzero;fill-opacity:1"/>
  <path fill="#f07b2b" d="m173.85 210.15-1.89-1.95a22.95 22.95 0 0 0-16.45-6.9c-1.44 0-2.88.13-4.3.4l-3.5.64-2.41-2.6a16.24 16.24 0 0 1-3.52-11.19v-11.9a21.66 21.66 0 0 1 4.16-13.4 7.92 7.92 0 0 1 5.99-2.28h3.77a3.25 3.25 0 0 0 3.26-3.25c0-3.84.78-94.91 70.06-130.82l9.5-4.94v57.5c0 .54.1 1.07.32 1.56 2.47 4.82 17.37 29.92 57.18 29.92 42.35 0 56.6-28.81 57.18-30.05.09-.47.09-.95 0-1.43V25.47l10.02 6.5c58.54 37.48 61.47 117.1 61.6 125.81a3.25 3.25 0 0 0 3.19 3.32h3.77a7.74 7.74 0 0 1 6.5 2.67 22.7 22.7 0 0 1 3.84 13.4v11.51a15.88 15.88 0 0 1-3.97 11.71l-2.4 2.41-3.39-.58a22.17 22.17 0 0 0-4.16-.4 23.02 23.02 0 0 0-16.52 6.9l-1.89 1.95Zm0 0" data-original="#f66701" style="stroke:none;fill-rule:nonzero;fill-opacity:1"/>
  <path fill="#f07b2b" d="M435.49 176.91v11.64a9.71 9.71 0 0 1-2.02 7.1 28.46 28.46 0 0 0-5.33-.52 29.66 29.66 0 0 0-21.14 8.52H176.59a29.45 29.45 0 0 0-21.08-8.85c-1.83 0-3.66.18-5.47.52a10.27 10.27 0 0 1-1.95-7.09v-11.58a15.22 15.22 0 0 1 2.28-8.78s.39-.4 1.36-.4h3.78a9.76 9.76 0 0 0 9.76-9.75c0-4.55 1.3-91.07 66.54-125.03v46.84c0 1.45.31 2.9.91 4.23.72 1.36 16.6 33.76 63.1 33.76 46.51 0 62.39-32.53 63.04-33.76.6-1.33.9-2.78.9-4.23V37.37c57.19 36.56 58.55 116.05 58.55 120.41a9.75 9.75 0 0 0 9.7 9.7h3.7c.98 0 1.24 0 1.37.39a15.52 15.52 0 0 1 2.4 9.04Zm0 0" data-original="#f66701" style="stroke:none;fill-rule:nonzero;fill-opacity:1"/>
  <path fill="#fcc082" d="M277.74 395.02c-54.67-.04-99-44.33-99.07-99v-71.17l-1.1-7.41 7.47-.78h221.18l-1.11 7.41v71.56c.14 54.75-44.13 99.25-98.88 99.4h-.39Zm0 0" data-original="#fcc082" style="stroke:none;fill-rule:nonzero;fill-opacity:1"/>
  <path fill="#fcc082" d="M398.54 223.16a9.98 9.98 0 0 0 0 1.37v71.49a92.63 92.63 0 0 1-92.7 92.5h-28.1a92.7 92.7 0 0 1-92.57-92.5v-71.17c.04-.46.04-.9 0-1.37Zm0 0" data-original="#fcc082" style="stroke:none;fill-rule:nonzero;fill-opacity:1"/>
  <path d="M564.03 567.93c-.46-3.19-10.35-77.41-47.3-104.08a202.29 202.29 0 0 0-39.55-20.5 9.45 9.45 0 0 0-2.66-1.42l-8.2-2.86a577.36 577.36 0 0 0-37.4-13.02l-7.42-3.25a8.7 8.7 0 0 0-2.28-.45c-20.62-6.51-38.7-11.32-48.4-13.92v-21.54a111.82 111.82 0 0 0 46.84-91.07v-16.59a29.44 29.44 0 0 0 10.22 1.89 29.73 29.73 0 0 0 29.66-29.73v-26.54a29.48 29.48 0 0 0-7.41-19.51 29.82 29.82 0 0 0 4.61-16.85v-11.32a33.25 33.25 0 0 0-7.22-22.9 20.43 20.43 0 0 0-9.95-5.66c-2.34-26.86-15.03-105.84-83.14-136.6h-.58A147.23 147.23 0 0 0 297.71.04h-5.66a155.2 155.2 0 0 0-54 8.45h-.38c-75.33 27.72-88.99 111.89-91.4 139.8a20.89 20.89 0 0 0-9.95 5.66 33.37 33.37 0 0 0-7.55 22.96v11.65a30.14 30.14 0 0 0 4.62 16.84 29.46 29.46 0 0 0-7.41 19.52v26.54a29.73 29.73 0 0 0 29.72 29.73 29.44 29.44 0 0 0 10.15-1.89v16.72a111.82 111.82 0 0 0 46.06 90.29v22.12A946.84 946.84 0 0 0 109 441.47h-.52a214.43 214.43 0 0 0-42.28 21.6C29.25 490 19.42 564.22 18.97 567.15L.37 709.55h19.51l18.67-139.86c2.4-19.13 14.31-72.73 39.35-91.08a151.72 151.72 0 0 1 24.85-13.33v84.56c-14.37 5.27-32.52 20.04-32.52 51.2v95.89a9.76 9.76 0 0 0 9.75 9.75h423.94a9.76 9.76 0 0 0 9.76-9.75v-95.7c0-31.16-18.28-45.92-32.53-51.2v-84.55a152.59 152.59 0 0 1 24.27 13.4c24.98 18.28 36.88 71.94 39.35 91.07l18.67 139.86h19.52ZM438.29 224.85v26.54a10.18 10.18 0 0 1-20.37 0v-26.54a10.18 10.18 0 0 1 20.37 0Zm-132.7-204.9a125.7 125.7 0 0 1 34.66 7.67v49.37a47.69 47.69 0 0 1-34.67 20.36v-77.4Zm-54.26 4.87a138.9 138.9 0 0 1 34.74-5.33v78.06a47.95 47.95 0 0 1-34.74-20.36Zm-85.67 226.57a10.18 10.18 0 0 1-20.36 0v-26.54a10.18 10.18 0 0 1 20.36 0Zm-10.15-56.27c-1.83 0-3.66.18-5.46.52a10.27 10.27 0 0 1-1.96-7.09v-11.9a15.25 15.25 0 0 1 2.28-8.78s.4-.4 1.36-.4h3.78a9.76 9.76 0 0 0 9.76-9.75c0-4.56 1.3-91.07 66.54-125.03v46.84c0 1.45.31 2.9.91 4.23.72 1.36 16.6 33.76 63.1 33.76 46.52 0 62.39-32.53 63.04-33.76.6-1.33.9-2.78.9-4.23V37.37c57.19 36.56 58.55 116.05 58.55 120.41a9.75 9.75 0 0 0 9.7 9.7h3.7c.98 0 1.24 0 1.37.39a15.54 15.54 0 0 1 2.27 9.04v11.64a9.68 9.68 0 0 1-2.01 7.1 28.46 28.46 0 0 0-5.34-.53 29.68 29.68 0 0 0-21 8.53H176.58a29.42 29.42 0 0 0-21.08-8.53Zm29.66 100.9v-71.17c.04-.45.04-.9 0-1.36h213.37c-.03.45-.03.9 0 1.36v71.17a92.63 92.63 0 0 1-92.7 92.5h-28.1a92.7 92.7 0 0 1-92.57-92.5Zm166.4 102.19v14.44l-60.17 76.5-60.5-76.56v-14.77a111.29 111.29 0 0 0 46.51 10.21h28.1a111.84 111.84 0 0 0 46.06-9.82Zm-176.74 41.05c18.6-5.73 34.6-10.02 42.93-12.23L284.18 511a9.64 9.64 0 0 0 7.61 3.7 9.5 9.5 0 0 0 7.61-3.77l65.64-83.91c8.39 2.27 24.72 6.5 43.71 12.42v111.83H174.57Zm319.33 161.97v86.13H89.74v-86.13c0-29.46 21.73-33.7 24.14-34.02a9.76 9.76 0 0 0 8.39-9.69V457.34a665.34 665.34 0 0 1 33.24-11.77v115.47a9.76 9.76 0 0 0 9.76 9.75h253.7a9.76 9.76 0 0 0 9.75-9.75V445.82l32.79 11.51v100.18a9.83 9.83 0 0 0 8.46 9.7c.97.12 24.2 3.57 24.2 34.02Zm0 0" data-original="#000000" style="stroke:none;fill-rule:nonzero;fill-opacity:1"/>
  <path d="M112.32 589h52.75v17.5h-52.75Zm306.25 0h52.7v17.5h-52.7Zm0 0" data-original="#000000" style="stroke:none;fill-rule:nonzero;fill-opacity:1"/>
</svg>
