<svg xmlns="http://www.w3.org/2000/svg" xml:space="preserve" width="512" height="512" style="enable-background:new 0 0 512 512" viewBox="0 0 64 64">
  <g fill="#f07b2b">
    <path d="M60 20h3v-2h-2.33l-4.7-11.43A8.97 8.97 0 0 0 47.64 1H31.35a8.97 8.97 0 0 0-7.55 4.11l-8.44 13.03-13.63 3.9A1 1 0 0 0 1 23v13a1 1 0 0 0 1 1h5.06a9.01 9.01 0 0 0 17.88 0h3.2l.53.81a13.82 13.82 0 0 1 0 15.38l-.73 1.1c-.61.92-.94 2-.94 3.1A5.61 5.61 0 0 0 32.6 63a5.6 5.6 0 0 0 3.11-.94l.68-.45a15.54 15.54 0 0 1 3.6-1.77V63h2v-4a1 1 0 0 0-.44-.83L36 54.47V51a1 1 0 0 1 2 0v3h2V41a1 1 0 0 1 2 0v7h2v-9a1 1 0 0 1 2 0v9h2v-7a1 1 0 0 1 2 0v7h2v-3a1 1 0 0 1 2 0v10.59l-1.7 1.7a1 1 0 0 0-.3.71v5h2v-1.13l.28.19a5.59 5.59 0 0 0 3.11.94A5.61 5.61 0 0 0 63 57.4c0-1.11-.33-2.19-.94-3.11l-.73-1.1a13.81 13.81 0 0 1 0-15.38l.73-1.1c.61-.92.94-2 .94-3.1A5.61 5.61 0 0 0 57.4 28a5.6 5.6 0 0 0-3.11.94l-.68.45a15.46 15.46 0 0 1-17.22 0l-.68-.45a5.59 5.59 0 0 0-3.1-.94A5.61 5.61 0 0 0 27 33.6c0 .48.07.95.19 1.4h-2.25a9.01 9.01 0 0 0-17.88 0H3v-6h3a1 1 0 0 0 1-1v-5.39l9.27-2.65a1 1 0 0 0 .57-.42L25.48 6.2A6.98 6.98 0 0 1 31.35 3h16.3a6.98 6.98 0 0 1 6.47 4.33l4.96 12.05A1 1 0 0 0 60 20zM32.6 30c.72 0 1.41.2 2 .6l.68.46a17.46 17.46 0 0 0 19.44 0l.68-.45a3.6 3.6 0 0 1 5 5l-.73 1.1a15.8 15.8 0 0 0 0 17.59l.72 1.1a3.6 3.6 0 0 1-5 5l-.68-.46-.71-.43v-1.1l1.7-1.7A1 1 0 0 0 56 56V45a3 3 0 0 0-4-2.82V41a3 3 0 0 0-4.12-2.78A3 3 0 0 0 45 36a3 3 0 0 0-2.88 2.22A2.98 2.98 0 0 0 41 38a3 3 0 0 0-3 3v7.18a2.97 2.97 0 0 0-1-.18 3 3 0 0 0-3 3v4a1 1 0 0 0 .45.83l3.8 2.54c-1.03.43-2.03.95-2.97 1.57l-.68.45a3.6 3.6 0 0 1-5-5l.73-1.1a15.8 15.8 0 0 0 0-17.59l-.72-1.1a3.6 3.6 0 0 1 3-5.6zM16 29a7 7 0 1 1-.02 14.02A7 7 0 0 1 16 29zM5 27H3v-3.25l2-.57z" data-original="#000000"/>
    <path d="M16 41a5 5 0 1 0-.01-10.01A5 5 0 0 0 16 41zm0-8a3 3 0 1 1 0 6 3 3 0 0 1 0-6zm39.82-13.43a1 1 0 0 0 .11-.93L51.92 8.2A5.03 5.03 0 0 0 47.25 5H32.23a4.97 4.97 0 0 0-4.25 2.38l-6.83 11.1A1 1 0 0 0 22 20h33a1 1 0 0 0 .82-.43zM29.68 8.43A2.98 2.98 0 0 1 32.23 7H38v11H23.79zM40 18V7h7.25a3.02 3.02 0 0 1 2.8 1.92l3.5 9.08zm-4 4h4v2h-4zm16 0h4v2h-4zM24 56a4 4 0 0 1-4-4 1 1 0 1 0-2 0 4 4 0 0 1-4 4 1 1 0 1 0 0 2 4 4 0 0 1 4 4 1 1 0 1 0 2 0 4 4 0 0 1 4-4 1 1 0 1 0 0-2zm-5 2.69A6.06 6.06 0 0 0 17.31 57 6.06 6.06 0 0 0 19 55.31 6.06 6.06 0 0 0 20.69 57 6.05 6.05 0 0 0 19 58.69zM12 49a4 4 0 0 1-4-4 1 1 0 1 0-2 0 4 4 0 0 1-4 4 1 1 0 1 0 0 2 4 4 0 0 1 4 4 1 1 0 1 0 2 0 4 4 0 0 1 4-4 1 1 0 1 0 0-2zm-5 2.69A6.05 6.05 0 0 0 5.31 50 6.05 6.05 0 0 0 7 48.31 6.05 6.05 0 0 0 8.69 50 6.05 6.05 0 0 0 7 51.69zM2 8a4 4 0 0 1 4 4 1 1 0 1 0 2 0 4 4 0 0 1 4-4 1 1 0 1 0 0-2 4 4 0 0 1-4-4 1 1 0 1 0-2 0 4 4 0 0 1-4 4 1 1 0 1 0 0 2zm5-2.69A6.05 6.05 0 0 0 8.69 7 6.05 6.05 0 0 0 7 8.69 6.05 6.05 0 0 0 5.31 7 6.05 6.05 0 0 0 7 5.31z" data-original="#000000"/>
  </g>
</svg>
