<svg xmlns="http://www.w3.org/2000/svg" data-name="Layer 1" viewBox="0 0 512 512">
  <linearGradient id="a" x1="135.6" x2="402.3" y1="438.9" y2="172.2" gradientUnits="userSpaceOnUse">
    <stop offset="0" stop-color="#e65233"/>
    <stop offset="1" stop-color="#f9a82d"/>
  </linearGradient>
  <path fill="url(#a)" fill-rule="evenodd" d="M346 306h16v-16h-15zm-25 0h16v-16h-16zm16 9h-16v16h16zm25 0h-15v16h15zm50-75v-59h-26v34l26 25zm-34-20 112 111h-23L345 211a5 5 0 0 0-7 0L216 331l-22-1 148-145 35 35a5 5 0 0 0 1 0zm-254 19c-5 0-10-2-14-4l-8-4-37 35c10 5 10 7 20 2 4-2 8-5 13-4l26-25zm57-7-35 34c-8-4-12-2-20 2-9 5-9 4-18-1l36-35c6 1 12 7 19 7s12-5 18-7zm49 2c-6-4-8-3-14 1-10 5-14 5-25 0l-36 35c5 2 7 1 12-2 11-6 15-6 25 0l2 1zm46 2c-11-5-10-7-20-1-6 3-10 5-17 3l-30 29c11-5 15-4 25 1a28 28 0 0 0 6 3l36-35zm-27-9c5-2 10-5 15-5 8 0 14 6 19 7l46-45-39 2-41 41zm-50 1c5 2 6 1 12-2 11-6 15-5 26 1l39-40-39 3-38 38zm-47-4c10 5 9 7 19 2 6-3 11-6 19-3l32-32-39 3zm-42 0 30-28 29-1-28 27-11 4c-3 2-5 3-8 3s-8-3-12-5zm81 95c-3-2-9-6-12-6-6 0-13 8-21 8s-16-8-21-8-12 8-21 8-15-8-21-8-12 8-20 8-16-8-21-8c-7 0-14 11-27 7v10h153l11-11zm-20-14c14-5 21 6 28 6l34-33c-11-5-10-7-20-2-5 3-10 6-16 4zm-57 6 34-34c10 5 14 4 24-1 7-4 8-4 15 0l-34 34a66 66 0 0 1-3-2c-11-6-15-6-26 0-4 2-6 4-10 3zm-47-3 34-34c5 3 10 7 17 7 8 0 16-8 21-8l-34 34c-9-5-14-3-22 1s-9 4-16 0zm-45-2c10 5 10 7 19 2 5-3 10-5 16-4l25-24c-11 3-18-5-25-7z"/>
</svg>
