<svg xmlns="http://www.w3.org/2000/svg" xml:space="preserve" width="512" height="512" style="enable-background:new 0 0 512 512" viewBox="0 0 779.11 779.11">
  <g fill="#f07b2b">
    <path d="M662.91 632.35H254.47a20.8 20.8 0 0 0-20.8 20.8v12.81a20.81 20.81 0 0 0 20.8 20.81h477.27v-54.42H662.9z" data-original="#000000"/>
    <circle cx="211.19" cy="189.63" r="115.19" data-original="#000000"/>
    <path d="M492.23 472.15 228.26 472l-6.25-.02v-30.63l-.21-25.64c0-61.25-49.65-110.9-110.9-110.9-2.08 0-4.14.07-6.19.18l-.15-.18C46.8 304.81 0 351.62 0 409.37v295.3h222.01v-125.8l-2.93-.23h-.4a53.72 53.72 0 0 1-39.56-17.4l-90.1-98.36a7.7 7.7 0 0 1 .47-10.87 7.7 7.7 0 0 1 10.87.48l90.11 98.36c7.33 8 17.65 12.88 28.52 13.04l10.6.15h262.64a45.95 45.95 0 0 0 0-91.9z" data-original="#000000"/>
    <path d="M765.2 309.11a20.57 20.57 0 0 0-26.13 12.8l-87.2 254.58H339.8a20.57 20.57 0 1 0 0 41.13h326.51c7 0 13.17-3.5 16.88-8.84a20.5 20.5 0 0 0 3.06-5.72L778 335.22a20.57 20.57 0 0 0-12.8-26.12z" data-original="#000000"/>
  </g>
</svg>
