<svg xmlns="http://www.w3.org/2000/svg" xml:space="preserve" width="512" height="512" style="enable-background:new 0 0 512 512">
  <path fill="#f07b2b" fill-rule="evenodd" d="M40.4 116.26c4.69 2.28 14.23 13.28 17.63 13.17 1.2-.03 2.3-5.37 2.41-6.33.62-5.37 1.57-13.8 9.04-12.76 12.35 1.72 23.83 9.07 35.88 12.25 22.83 6.03 47.83 9.42 71.26 12.37 23.7 2.96 43.03-2.87 66.05-2.68 13.55.1 25.02 6.68 37.96 9.56 7.23 1.62 14.49-.48 21.53.95 7.82 1.58 6.39 14.13 14.16 17.7 5.64 2.6 11.87 2.72 17.98 2.63 1.23 0 6.04-.7 7.08.98 5.64 9.14-5.8 41.83 15.53 39.93 6.91-.63 9.62-7.93 15.27-10.4 5.67-2.5 13.13 1.14 19.06-2.06 5.56-3.02 9.54-8.58 14.68-12.23 6.76-4.8 14.94-7.32 20.35-13.88 4.72-5.72 6.16-13.52 11.24-18.97 4.64-5 10.99-7.76 16.1-12.18 8.77-7.6 6.87-18.91 12.58-27.85 11.11-17.16 19.14 1.86 24.86 11.92 1.34 1.96 4.7 5.19 3.99 7.71-2.94 10.48-14.3 15.36-18.69 25.17-2.9 6.48 3.2 13.39.45 20.1-3.27 8.02-11.09 11.73-15.41 18.78-3.7 6.04-.12 12.43-2.53 18.47-3.3 8.29-11.4 13.16-14.12 22.3-4.08 13.74 14.64 24.9 8.6 39.32-5.37 12.8-22.03 20.95-30.66 31.47-2.4 2.9-6.82 8.11-7.24 12.06-3.41 24.2 35.22 52.4 27.64 74.98-3.95 5.95-9.73 3.64-13.24-.6-8.85-10.68-15.97-22.85-25.08-33.5-10.97-12.8-24.37-7.23-38.94-9.1-7.38-.94-13.77-5.61-21.57-3.59-9.1 2.37-10.72 17.37-19.22 22.21-23.86 10.2-44.45-9.61-56.15 27.13-2.35 8.78-2.24 20.36-14.94 20.54-4.27.07-8.9-5.78-11.15-8.8-7.67-10.22-10.5-23.23-18.69-33.4-8.95-11.11-18.2 2.42-28.32-2.95-11.83-6.26-14.49-22.81-27.38-30.78-11.96-7.4-25.14 4.04-37.9 2.58-12.3-1.4-22.35-12.16-33.24-17.22-9.7-4.51-21.78-4.47-30.86-9.46-5.13-2.81-8.16-8.34-12.18-12.39-6.4-6.46-14.43-10.6-19-18.78-6.8-12.13-4.99-27.37-8.73-40.5-3.4-11.9-10.95-23.02-9.8-35.83 1.66-18.75 11.82-35.22 16.88-53.06 3.27-11.53 1-24.31 6.82-34.98z" clip-rule="evenodd" data-original="#000000"/>
</svg>
