<svg xmlns="http://www.w3.org/2000/svg" xml:space="preserve" width="512" height="512" style="enable-background:new 0 0 512 512" viewBox="0 0 64 64">
  <path fill="#f07b2b" d="M62 37v-5h-2v5h-2v-5h-2v5h-2v-5h-2v5a1 1 0 0 0-1 1v4a6 6 0 0 0 5 6v1a7 7 0 0 0 1 14v-2a5 5 0 0 1 0-10 1 1 0 0 0 1-1v-2a6 6 0 0 0 5-6v-4a1 1 0 0 0-1-1Zm-1 5a4 4 0 0 1-8 0v-3h8ZM40 13l10 5-5 11a1 1 0 0 0 2 1l16-13a1 1 0 0 0-1-2l-10-4 3-9a1 1 0 0 0-2-1L39 11a1 1 0 0 0 1 2Zm12-8-2 7a1 1 0 0 0 1 1l9 3-11 10 3-8a1 1 0 0 0-1-1l-9-5ZM39 40l-8-2v-3a9 9 0 0 0 3-6 3 3 0 0 0 2-7v-2a1 1 0 0 0-1-1 8 8 0 0 0-2-4l1-1-2-2-1 1a9 9 0 0 0-3-1v-1a1 1 0 0 0-1-1h-4a1 1 0 0 0-1 1v1a8 8 0 0 0-3 1l-1-1-2 2 1 1a8 8 0 0 0-2 4 1 1 0 0 0-1 1v2a3 3 0 0 0 2 7 9 9 0 0 0 3 6v3l-8 2a7 7 0 0 0-6 6L1 62a1 1 0 0 0 1 1h45a1 1 0 0 0 1-1l-3-16a7 7 0 0 0-6-6Zm-6 21H17v-3l4-2h8l4 2Zm1-5-5-2h-8l-5 2a1 1 0 0 0-1 1v4h-2V42l2-1v10a1 1 0 0 0 1 1h18a1 1 0 0 0 1-1V41l2 1v19h-2v-4a1 1 0 0 0-1-1Zm-9-11a6 6 0 0 0 6-5l2 1v9H17v-9l2-1a6 6 0 0 0 6 5Zm-9-23v-1h18v1Zm19 5h-1v-3h1a2 2 0 0 1 0 3Zm-9-15-1 2-1-2Zm-7 4v1l2-2h-1a6 6 0 0 1 3-1v1a1 1 0 0 0 1 1h2a1 1 0 0 0 1-1v-1a7 7 0 0 1 3 1h-1l2 2v-1a6 6 0 0 1 2 3H17a6 6 0 0 1 2-3Zm-5 10a2 2 0 0 1 2-2v3a2 2 0 0 1-2-1Zm4 2v-4h14v4a7 7 0 0 1-14 0Zm7 9a9 9 0 0 0 4-1v3a4 4 0 0 1-8 0v-3a9 9 0 0 0 4 1ZM7 46a5 5 0 0 1 4-4v19H3Zm32 15V42a5 5 0 0 1 4 4l3 15Z" data-original="#000000"/>
</svg>
