<svg xmlns="http://www.w3.org/2000/svg" xml:space="preserve" width="512" height="512" style="enable-background:new 0 0 512 512" viewBox="0 0 262.41 224.73">
  <g fill="#f07b2b">
    <path d="M225.76 220.56c1.8 0 2.95 3.16 4.23 1.89 1.27-1.28 3.16-2.95 2.53-5.14-.5-1.73-4.37-.9-4.37-2.7 0-1.8 1.76-1.8 1.76-3.6s-2.24-1.8-2.24-3.6 3.23-1.8 3.23-3.6-.14-1.8-.14-3.6-3.1-1.8-3.1-3.6 4.52-1.8 4.52-3.6-3.62-1.8-3.62-3.6 2.29-1.8 2.29-3.6-3.74-1.8-3.74-3.6.57-1.8.57-3.6-.52-1.8-.52-3.6 4.03-1.8 4.03-3.6 1.15-1.8 1.15-3.6-3.94-1.8-3.94-3.6 2.74-1.8 2.74-3.6-2.08-1.8-2.08-3.6l-.02-3.6c0-1.8-.85-1.8-.85-3.6s-2.02-1.8-2.02-3.6 5.78-1.8 5.78-3.6-4.26-1.8-4.26-3.6 4.2-1.8 4.2-3.59-1.75-1.8-1.75-3.6-.23-1.8-.23-3.6 2.38-1.8 2.38-3.6-1.92-1.8-1.92-3.6-2.6-1.79-2.6-3.59c0-1.8 1.08-.52-.2-1.8-1.28-1.27-.01-1.94-1.82-1.94s-1.81-.1-3.62-.1-1.81 3.44-3.62 3.44-1.8-1.7-3.61-1.7c-1.8 0-1.8-1.14-3.62-1.14s-1.8 2.66-3.61 2.66-1.8-2.42-3.62-2.42-1.8-3.09-3.61-3.09c-1.8 0-1.8 4.02-3.61 4.02s-1.81.47-3.62.47c-1.8 0-1.8-3.43-3.61-3.43-1.8 0-1.8 4.63-3.61 4.63-1.8 0-1.8-4.62-3.61-4.62-1.8 0-1.8-.88-3.61-.88-1.8 0-1.8 3.25-3.61 3.25s-1.8 1.83-3.62 1.83c-1.8 0-1.8.34-3.6.34s-1.81-6.11-3.62-6.11-1.8 1.86-3.61 1.86-1.8-1.57-3.61-1.57-1.81 2.69-3.62 2.69c-1.8 0-1.8-1.99-3.6-1.99-1.81 0-1.81-.15-3.62-.15-1.8 0-1.8 1.1-3.61 1.1s-1.8-1.24-3.61-1.24c-1.8 0-1.8 1.81-3.61 1.81s-1.81 1.11-3.62 1.11-1.8 2.47-3.6 2.47-1.8-2.71-3.61-2.71c-1.81 0-1.81 1.42-3.62 1.42-1.8 0-1.83-2.58-3.11-1.3-1.28 1.27-3.2 1.3-3.2 3.1s3.92 1.8 3.92 3.61c0 1.8.32 1.8.32 3.6s-3.93 1.8-3.93 3.6 4.63 1.8 4.63 3.6-1.7 1.8-1.7 3.6 1.34 1.81 1.34 3.61-.42 1.8-.42 3.6.62 1.8.62 3.6-1.66 1.8-1.66 3.6.22 1.8.22 3.6-3.15 1.8-3.15 3.6 3.9 1.8 3.9 3.6-2.28 1.8-2.28 3.6-2.06 1.8-2.06 3.6 2.31 1.8 2.31 3.6-.65 1.8-.65 3.6-1.07 1.8-1.07 3.6 3.08 1.8 3.08 3.6.08 1.79.08 3.59-1 1.8-1 3.6 1.87 1.8 1.87 3.6.82 1.8.82 3.6-1.22 1.8-1.22 3.6.43 1.8.43 3.6-4.3 1.8-4.3 3.6.88 1.8.88 3.59c0 1.8 4.28 1.8 4.28 3.6s.78 1.8.78 3.6-5.65 3.36-4.37 4.63c1.28 1.28 2.84.2 4.65.2s1.81 1.12 3.62 1.12 1.81-3.33 3.62-3.33 1.8-1.42 3.61-1.42c1.81 0 1.81.74 3.62.74s1.8-1.4 3.61-1.4 1.81 5.95 3.62 5.95 1.8-1.81 3.61-1.81c1.81 0 1.81-1.95 3.62-1.95s1.8-.68 3.6-.68c1.82 0 1.82.25 3.62.25s1.8 2.82 3.61 2.82c1.8 0 1.8-3.7 3.62-3.7 1.8 0 1.8 1.1 3.6 1.1s1.8 3.1 3.62 3.1 1.8-2.43 3.6-2.43c1.81 0 1.81 1.48 3.62 1.48s1.8-3.8 3.61-3.8 1.8 2.22 3.61 2.22 1.81-2.15 3.62-2.15 1.8 4.23 3.6 4.23c1.82 0 1.82-4.66 3.62-4.66s1.8 4.27 3.61 4.27c1.8 0 1.8-2.46 3.61-2.46s1.8 2.61 3.61 2.61c1.81 0 1.81.37 3.62.37s1.8-2.15 3.6-2.15 1.81 1 3.62 1c1.8 0 1.8.08 3.6.08 1.82 0 1.82-1.91 3.62-1.91zm3.65-126.8h-2.44v2h-4.57v-2h-2.44v2h-4.57v-2h-2.44v2h-4.57v-2h-2.44v2h-4.57v-2h-2.44v2h-4.57v-2h-2.44v2h-4.57v-2h-2.44v2h-4.57v-2h-2.44v2h-4.57v-2h-2.44v2h-4.57v-2h-2.44v2h-4.57v-2h-2.44v2h-4.57v-2h-2.44v2h-4.57v-2h-2.44v2h-4.57v-2h-2.44v2h-4.57v-2h-2.44v2h-4.57v-2h-2.44v2h-6.67V84.75h-7.02v-6.86H84.36v6.86h-7.02v4.82H65.48v4.5l1.62.34c.53.1 1.03.26 1.52.44v-2.14h8.72v12.2h-2.02a10.29 10.29 0 0 1-.19 1.65 10.18 10.18 0 0 1-.43 1.5h2.64v4.48h37.8v-11.02h6.67v2h2.44v-2h4.57v2h2.44v-2h4.57v2h2.44v-2h4.57v2h2.44v-2h4.57v2h2.44v-2h4.57v2h2.44v-2h4.57v2h2.44v-2h4.57v2h2.44v-2h4.57v2h2.44v-2h4.57v2h2.44v-2h4.57v2h2.44v-2h4.57v2h2.44v-2h4.57v2h2.44v-2h4.57v2h2.44v-2h4.57v2h2.44v-2h4.57v2h2.44v-2h4.88v-5.75h-4.88v-2.01zM88 83.96V81.2h16.87v2.75zm-1.78 24.3h-2.67V89.6h2.67zm6.25 0H89.8V89.6h2.67zm15.17-.45a3.38 3.38 0 1 1 0-6.75 3.38 3.38 0 0 1 0 6.75zM5.19 199.75a12.5 12.5 0 0 0 3.52 17.32 12.45 12.45 0 0 0 6.9 2.08 12.5 12.5 0 0 0 10.43-5.6c14.01-21.16 18.44-40.57 18.5-56.57l-29.61-24.02c5.75 14.35 9.24 38.13-9.74 66.79z" data-original="#000000"/>
    <path d="M17.31 105.26a10.33 10.33 0 0 1-7.32-5.85 10.33 10.33 0 0 1 .44-9.37l18.34-32a10.33 10.33 0 0 1 8.94-5.18c1.79 0 3.56.47 5.12 1.37a10.23 10.23 0 0 1 4.81 6.24 10.23 10.23 0 0 1-1 7.81L35.4 87.93l19.12 3.9 8.88-3.15v-1.2h3.38l8.48-3.01v-1.81h5.1l1.92-.69V75.8h12.15a7.98 7.98 0 0 0 .74-6.9 8 8 0 0 0-10.21-4.86L58.32 73.5l1.04-17.7a7.96 7.96 0 0 0-1.08-4.51 11.79 11.79 0 0 0-4.78-6.4c-7.4-4.75-20.62-4.31-30.07 7.95C10.53 69.78 4.95 81.76.3 103.64c-.65 4.85-.21 8.7.94 11.8a12.43 12.43 0 0 0 4.27 6.83l4.6 3.75 40.61 33 16.4 51.77a12.5 12.5 0 0 0 23.83-7.54L73.43 147.9a12.5 12.5 0 0 0-4.04-5.92l-35.1-28.53a77.96 77.96 0 0 1 1.32-4.46zm30.66-92.97a22.5 22.5 0 1 0 40.85 18.77 63.83 63.83 0 0 1-3.62-1.57c-10.55-4.95-17.8-11.78-16.47-15.42.49 3.75 8.3 8.81 18.67 11.85 7.82 2.29 15.06 2.83 19.18 1.71 1.88-.5 3.12-1.36 3.46-2.55 1.12-3.8-7.22-9.58-18.61-12.92a63.52 63.52 0 0 0-4-1.03 22.39 22.39 0 0 0-9.2-8.68 22.5 22.5 0 0 0-30.26 9.84z" data-original="#000000"/>
    <path d="M72.88 106.1a8 8 0 0 0-6.24-9.44l-34.83-7.12 12.84-22.4a8 8 0 0 0-2.97-10.92 8 8 0 0 0-10.92 2.97l-18.33 32A8 8 0 0 0 17.77 103l45.67 9.33a8 8 0 0 0 9.44-6.23zm116.9-19.27c1.32-.95 1.21-3.34-.91-6.29-2.13-2.94-6.79-4.37-6.79-4.37s-.1 4.87 2.02 7.81c2.13 2.95 4.37 3.8 5.69 2.85zm29.18-6.24c2.04-3 1.8-7.87 1.8-7.87s-4.62 1.57-6.66 4.58c-2.04 3-2.07 5.4-.73 6.32 1.34.9 3.56-.02 5.6-3.03zM197.5 51.42s-2.41 4.23-1.94 7.83 2.03 5.43 3.64 5.22 2.65-2.37 2.18-5.97c-.47-3.6-3.88-7.08-3.88-7.08zM161.37 37c-2.28-2.83-7-4.01-7-4.01s.14 4.87 2.42 7.7 4.57 3.57 5.83 2.55 1.03-3.4-1.25-6.24zm-13.72 43.67c.75 1.44 3.13 1.68 6.36 0 3.22-1.67 5.32-6.06 5.32-6.06s-4.8-.82-8.03.85-4.4 3.77-3.65 5.2zm92.32-28.22s-3.32-3.57-6.9-4.2c-3.57-.64-5.78.31-6.06 1.9s1.46 3.25 5.04 3.88 7.92-1.58 7.92-1.58zm6.76 84.49c-3.2-1.73-5.59-1.53-6.36-.1s.37 3.53 3.56 5.26c3.2 1.73 8.01 1 8.01 1s-2.02-4.43-5.21-6.16zm7.62 19.53c-3.46 1.13-4.95 3-4.45 4.54.5 1.55 2.82 2.17 6.28 1.04s6.23-5.13 6.23-5.13-4.6-1.58-8.06-.45zM113.27 70.55a1 1 0 0 0-.94 1.06 1 1 0 0 0 1.06.94c.03 0 2.25-.1 3.77 1.3.98.92 1.5 2.3 1.53 4.1a1 1 0 0 0 1 .98h.02a1 1 0 0 0 .98-1.01c-.04-2.37-.77-4.23-2.18-5.53a7.67 7.67 0 0 0-5.24-1.84z" data-original="#000000"/>
    <path d="M114.83 66a1 1 0 0 0 0 2h.02c.1 0 3.58.02 5.97 2.45 1.59 1.6 2.36 3.92 2.3 6.9a1 1 0 0 0 .97 1.02h.02a1 1 0 0 0 1-.98c.08-3.53-.89-6.34-2.86-8.34a11.07 11.07 0 0 0-7.42-3.06zm82.9 15.97 5.18-2.93 1-7.56-1.99-.26-.86 6.57-4.32 2.44zm-31.4 2.33 1.95 1.14 1.01-1.72-2.88-1.7-4.98 2.5.89 1.79zm77.06 33.97 1.97-.37-1.1-5.76-4.22-1.96-.84 1.8 3.29 1.54zm-.3-37.91 2.33-.88-.7-1.87-3.29 1.23-1.27 4.56-2.96 1.59.95 1.76 3.7-2zM97.12 129.3v3.5l-2.1 3.52 1.71 1.03 2.4-4v-2.98l3.3-2.2-1.11-1.67zm5.79 30.8 1.93-.53-.6-2.2 4.16-4.15-.28-3.96-2 .14.22 3.05-4.34 4.34zm-18.48-35.52c-3.46 1.11-6.26 5.1-6.26 5.1s4.6 1.6 8.06.5 4.97-2.97 4.47-4.52c-.5-1.54-2.8-2.18-6.27-1.08zm58.35-66.14-2.34-2.67-5.53.74.26 1.98 4.47-.6 2.33 2.66 6.19-.72-.24-2z" data-original="#000000"/>
  </g>
</svg>
