<svg xmlns="http://www.w3.org/2000/svg" xml:space="preserve" width="512" height="512" style="enable-background:new 0 0 512 512" viewBox="0 0 100 100">
  <g fill="#f07b2b">
    <path d="M97.5 12.07c-.09-.26-1.62.2-1.88.24-2.73.62-5.37 1.6-7.89 2.84-5.08 2.48-9.64 5.91-13.96 9.52A199.75 199.75 0 0 0 47.74 51.1c-.19-.88-3.29-14.72-9.21-17.83-1.98-1.04-3.82-.95-3.82-.95a7.58 7.58 0 0 0-5.8 3.29c-2.3 3.58-.97 7.12.33 10.43L36.9 65.7c.86 2.18 1.82 4.5 3.77 5.81 2.57 1.74 6.18 1.1 8.72-.68 2.56-1.77 4.29-4.46 6-7.06 1-1.52 2.02-3.03 3.04-4.53a323.77 323.77 0 0 1 10.69-14.75A335.15 335.15 0 0 1 80.6 30.36a312.92 312.92 0 0 1 12.26-13.47c1.05-1.1 2.1-2.18 3.18-3.26.21-.22 1.53-1.3 1.45-1.56z" data-original="#000000"/>
    <path d="M46.32 6.18a43.63 43.63 0 0 0-17.05 3.45 43.74 43.74 0 0 0-13.93 9.39 43.63 43.63 0 0 0-9.4 13.93C3.66 38.35 2.5 44.09 2.5 50s1.16 11.65 3.44 17.05a43.63 43.63 0 0 0 9.4 13.93 43.63 43.63 0 0 0 13.93 9.4 43.61 43.61 0 0 0 17.05 3.44c5.91 0 11.65-1.17 17.05-3.45a43.74 43.74 0 0 0 13.93-9.39 43.63 43.63 0 0 0 9.39-13.93A43.61 43.61 0 0 0 90.13 50a43.63 43.63 0 0 0-4.34-19.05l-1.93 2.21a358.83 358.83 0 0 0-4.28 5.1 35.05 35.05 0 0 1 2 11.74 35.31 35.31 0 0 1-35.26 35.27A35.31 35.31 0 0 1 11.05 50a35.31 35.31 0 0 1 35.27-35.27 35.08 35.08 0 0 1 22.74 8.34l1.97-1.68a110.3 110.3 0 0 1 4.77-3.8 43.75 43.75 0 0 0-12.43-7.96 43.61 43.61 0 0 0-17.05-3.45z" data-original="#000000"/>
  </g>
</svg>
