<svg xmlns="http://www.w3.org/2000/svg" xml:space="preserve" style="enable-background:new 0 0 496 496" viewBox="0 0 496 496">
  <path d="M240 261c-50-11-88-55-88-109v-8h-44c2 5 4 10 4 16v16a32 32 0 0 1-64 0v-16c0-6 2-11 4-16H0v160h212c8-14 17-28 28-40v-3zm164-117c2 1 4 4 4 7v16c0 4-4 8-9 7l-25-4c-6 40-33 73-70 87v9l11-2h3c20 0 37 14 42 33l1 7h135V144h-92z" style="fill:#ffa64d"/>
  <path d="m401 143-25-4v-19a112 112 0 0 0-222-20l-17-2c-5-1-9 3-9 7v16c0 4 3 7 7 8l201 35 16 2 47 8c5 1 9-3 9-7v-16c0-4-3-7-7-8z" style="fill:#ffa64d"/>
  <path d="m381 179 16 3 3 1a16 16 0 0 0 16-16v-16c0-8-6-15-13-16l-19-3v-12a120 120 0 0 0-236-29l-9-1c-5-1-10 0-13 3s-6 8-6 12v16c0 8 6 15 13 16l11 2v13c0 53 35 99 84 114-21 26-36 56-44 88l-59 18c2-5 3-10 3-16v-52h-16v52c0 11-7 21-16 25l-8 3h-4c-15 0-28-13-28-28v-52H40v52a44 44 0 0 0 50 43v1l1-1c4 0 8-1 11-3l78-24c-3 14-4 27-4 41v83h234l-24-88 8-2-26-111c-5-21-24-37-45-39 28-16 50-43 58-77zM264 16c32 0 60 14 79 36l-13 9a87 87 0 0 0-66-29c-25 0-48 10-64 28l-12-11c19-20 47-33 76-33zm-86 45 23 23 5-7c14-19 35-29 58-29s44 11 58 29l4 6 26-18c10 16 16 35 16 55v9L163 94c3-12 8-23 15-33zm-18 91v-10l96 16v6c0 15 13 28 28 28a12 12 0 0 1 0 24h-12v40h-8c-57 0-104-47-104-104zm230 328h-56l-13-60 50-9 19 69zm-38-181 22 95-72 13-21-92-1-8c0-19 16-35 35-35h3c16 0 30 11 34 27zm-87 20 25 106 15-3 13 58H192v-67c0-52 19-103 53-143a120 120 0 0 0 34 1 51 51 0 0 0-14 48zm23-66v-21a28 28 0 0 0-4-56c-7 0-12-5-12-12v-3l63 11 2-16-201-35v-16l264 46v16l-47-8-2 15 14 3c-9 38-40 67-77 76z" style="fill:#333"/>
  <path d="M224 80h16v16h-16zm40 8h16v16h-16zm40 8h16v16h-16zm-120 64h16v16h-16zM80 216c22 0 40-18 40-40v-16a40 40 0 0 0-80 0v16c0 22 18 40 40 40zm-24-56a24 24 0 0 1 48 0v16a24 24 0 0 1-48 0v-16z" style="fill:#333"/>
</svg>
