<svg xmlns="http://www.w3.org/2000/svg" xml:space="preserve" width="512" height="512" style="enable-background:new 0 0 512 512" viewBox="0 0 244.7 186.3">
  <g fill="#f07b2b">
    <path d="M0 163h81v7H0zm0 10h245v13H0zm164-10h81v7h-81zm3-13-80 12 1 7 59-9v-2l7-2 1 3 13-2zm-19 15v2l5 3 3-4-1-3zm-19 5h5l2-2-2-2-4 1zm42-11h5l2-2-2-2-4 1z" data-original="#000000"/>
    <circle cx="93.6" cy="22.5" r="22.5" data-original="#000000" transform="rotate(-53 94 23)"/>
    <path d="M18 152a13 13 0 0 0 3 0l47-12-13-31-26 10 7 3-21 6a12 12 0 0 0 3 24zm84-39a8 8 0 0 0 8-5 8 8 0 0 0-4-10c-20-9-29-19-34-28-5-8-5-15-5-17a8 8 0 0 0-16-1v1c0 4 0 13 6 24h1l5-1a14 14 0 0 1 13 9l9 20 14 7a8 8 0 0 0 3 1zM67 53z" data-original="#000000"/>
    <path d="m31 116 25-10 17 40c2 5 6 8 11 8a12 12 0 0 0 5-1c6-3 9-10 7-16L74 86c-2-7-9-10-16-7l-23 9 1-3 19-7a53 53 0 0 1-6-26 10 10 0 0 1 11-10c5 1 9 6 9 11l1 8c5-8 5-18-1-23-7-5-20-6-31 5-14 16-21 27-27 49-3 11 1 17 6 21l1 1c4 3 8 4 13 2z" data-original="#000000"/>
  </g>
</svg>
