<svg xmlns="http://www.w3.org/2000/svg" xml:space="preserve" width="512" height="512" style="enable-background:new 0 0 512 512" viewBox="0 0 32 32">
  <clipPath id="a">
    <path fill="#313131" d="M0 0h32v32H0z" data-original="#000000"/>
  </clipPath>
  <g fill="#f07b2b" clip-path="url(#a)">
    <path fill-rule="evenodd" d="M12 11H7l-1 1-2 4H3l1-1-4 1v1h4l-2 1H1l-1 2v4a68 68 0 0 0 1 5l1 3h4l1-2h18l1 2h4l1-3h1v-5l-1-6h-1l-2-1h4v-1l-4-1 1 1h-1l-2-4-1-1h-1v1h1c1 0 2 2 2 5 1 0 0 0 0 0a227 227 0 0 0-22 0c0-3 1-5 2-5h5a6 6 0 0 1 0-1zM5 29l-2-2-2-1c0 1 0 2 2 2zm-3-8H1a4 4 0 0 0 0 1v1l4 1 2-1-5-2zm25 8 2-2 2-1c0 1 0 2-2 2zm-2-6 5-2h1a4 4 0 0 1 0 1v1l-4 1-2-1zm-15 5-2 1h16l-2-1zm-2-4a1 1 0 0 1 1-1h15a1 1 0 0 1 0 1 3 3 0 0 1-2 2H11a3 3 0 0 1-3-2z" clip-rule="evenodd" data-original="#333333"/>
    <path fill-rule="evenodd" d="M27 2h-1l-2 3-1 2v1a5 5 0 1 1-3-3h1l2-1 3-2a3 3 0 0 1 1-1h1a2 2 0 0 1 2 4l-1 1a1 1 0 0 0 1 1h2a1 1 0 0 1 0 1h-2l-2-3 1-1a1 1 0 0 0-1-2zm-9 5a3 3 0 1 0 3 3l-2 1a2 2 0 1 1-2-2z" clip-rule="evenodd" data-original="#333333"/>
    <path d="M9 3v2l2 1H9v2L8 6H6l2-1zM3 8v1l1 1H3v1l-1-1H1l1-1zm0-6v1h1-1v1-1H2h1z" data-original="#333333"/>
  </g>
</svg>
