<svg xmlns="http://www.w3.org/2000/svg" xml:space="preserve" width="512" height="512" style="enable-background:new 0 0 512 512" viewBox="0 0 64 64">
  <g fill="#f07b2b">
    <path d="M28 26a1 1 0 0 0 1-1v-1a1 1 0 0 0-2 0v1a1 1 0 0 0 1 1Zm8 0a1 1 0 0 0 1-1v-1a1 1 0 0 0-2 0v1a1 1 0 0 0 1 1Zm-4 8c2 0 4-1 4-3h-2l-2 1-2-1h-2c0 2 2 3 4 3Z" data-original="#000000"/>
    <path d="M56 48h-1v-4a1 1 0 0 0-1-1v-8h1a1 1 0 0 0 0-1l-1-6a1 1 0 0 0-1-1h-4a1 1 0 0 0-1 1l-1 6a1 1 0 0 0 0 1h1v8a1 1 0 0 0-1 1v2a7 7 0 0 0-3-2l-2-1a4 4 0 0 1-3-4v-2a11 11 0 0 0 4-8v-4h1a3 3 0 0 0 3-3v-1a3 3 0 0 0-3-3v-4a12 12 0 0 0-24 0v4a3 3 0 0 0-3 3v1a3 3 0 0 0 3 3h1v4a11 11 0 0 0 4 8v2a4 4 0 0 1-3 4l-2 1a7 7 0 0 0-3 2v-6a3 3 0 0 1 1-2 7 7 0 0 0-3-12 1 1 0 0 0-1 1v5l-1 1-1-1v-5a1 1 0 0 0-1-1 7 7 0 0 0-3 12 3 3 0 0 1 1 2v8H8a3 3 0 0 0-3 3v10a1 1 0 0 0 1 1h6a5 5 0 0 0 3-1 1 1 0 0 0 1 1h32a1 1 0 0 0 1-1 5 5 0 0 0 3 1h6a1 1 0 0 0 1-1V51a3 3 0 0 0-3-3ZM43 20h1a1 1 0 0 1 1 1v1a1 1 0 0 1-1 1h-1ZM7 51a1 1 0 0 1 1-1h2v2H7Zm5 9H7v-6h5a3 3 0 0 1 0 6Zm3-20v13a5 5 0 0 0-3-1v-3a1 1 0 0 0-1-1v-8a5 5 0 0 0-2-3 5 5 0 0 1 1-8v4a1 1 0 0 0 1 1l2 1 2-1a1 1 0 0 0 1-1v-4a5 5 0 0 1 2 4 5 5 0 0 1-2 4 5 5 0 0 0-1 3Zm3 20h-1V50a5 5 0 0 1 1-3Zm3-37h-1a1 1 0 0 1-1-1v-1a1 1 0 0 1 1-1h1Zm1-9a10 10 0 0 1 20 0v3l-3-5a1 1 0 0 0-1 0H25a1 1 0 0 0-1 1l-2 4Zm18 4H24l2-4h11ZM23 29v-9h18v9a9 9 0 0 1-18 0Zm9 17a12 12 0 0 1-7-2 6 6 0 0 0 2-5 11 11 0 0 0 10 0 6 6 0 0 0 2 5 12 12 0 0 1-7 2Zm7 0-1 5H26l-1-5a14 14 0 0 0 14 0Zm1 14H24v-2h16Zm4 0h-2v-3a1 1 0 0 0-1-1H23a1 1 0 0 0-1 1v3h-2V46a6 6 0 0 1 1 0l2-1 1 7a1 1 0 0 0 1 1h14a1 1 0 0 0 1-1l1-7 2 1a5 5 0 0 1 1 0Zm3 0h-1V47a5 5 0 0 1 1 3Zm3-31h2l1 5h-1a1 1 0 0 0 0 1v8h-2v-8a1 1 0 0 0 0-1h-1Zm-1 16h4v3a1 1 0 0 0-1 1v3a5 5 0 0 0-3 1Zm8 15h-5a3 3 0 0 1 0-6h5Zm0-8h-3v-2h2a1 1 0 0 1 1 1Z" data-original="#000000"/>
  </g>
</svg>
