<svg xmlns="http://www.w3.org/2000/svg" xml:space="preserve" width="512" height="512" style="enable-background:new 0 0 512 512" viewBox="0 0 403.7 403.7">
  <g fill="#f07b2b">
    <path d="M400 63h-38c-2 0-4 2-4 4v265h-84V105c0-3-2-4-4-4H46V67c0-2-2-4-4-4H4c-2 0-4 2-4 4v269c0 3 2 4 4 4h396c2 0 4-1 4-4V67c0-2-2-4-4-4zM38 104v228H8V71h30zm160 5h30v16h-30zm-38 0h30v16h-30zm-38 0h30v16h-30zm-38 0h30v16H84zm-38 0h30v16H46zm0 53h30v113H46zm30 170H46v-19h30v19zm38 0H84v-19h30v19zm38 0h-30v-19h30zm38 0h-30v-19h30zm38 0h-30v-19h30zm38 0h-30v-19h30zm0-27H46v-22h220v22zM84 275V162h30v113zm38 0V162h30v113zm38 0V162h30v113zm53-20h15v20h-30V162h30v27h-15c-2 0-4 2-4 4v58c0 2 2 4 4 4zm53 20h-30v-20h30zm0-29h-49v-49h49zm0-57h-30v-27h30zm0-35H46v-21h220v21zm0-29h-30v-16h30zm130 207h-30V71h30z" data-original="#000000"/>
    <path d="M242 239a17 17 0 1 0 0-34 17 17 0 0 0 0 34zm0-26c4 0 8 4 8 9s-4 9-8 9-9-4-9-9 4-9 9-9zm104 9c0-2-2-4-4-4h-42l9-9c2-2 2-5 0-6s-4-2-6 0l-16 16-1 3v1l1 1v1l16 16 3 1 3-1a4 4 0 0 0 0-6l-9-9h42c2 0 4-2 4-4z" data-original="#000000"/>
  </g>
</svg>
