<svg xmlns="http://www.w3.org/2000/svg" xml:space="preserve" width="512" height="512" style="enable-background:new 0 0 512 512">
  <g fill="#f07b2b">
    <path d="M511.2 10.98C509.4 4.7 503.86 0 497 0h-60a15 15 0 1 0 0 30h35.08l-71.63 80.88c-96.58 109.25-238.7 166.99-384.16 154.35C8.3 264.39.78 270.62.06 278.88a15 15 0 0 0 13.65 16.23 437.9 437.9 0 0 0 39.86 1.82c140.17 0 275.82-60.4 369.35-166.19L482 64.06V75a15 15 0 1 0 30 0V29.8l-.8-18.82z" data-original="#000000"/>
    <path d="M497 482h-16V144.76a15.01 15.01 0 0 0-26.47-9.67l-9.21 10.94a518.79 518.79 0 0 1-49.35 51.04 14.99 14.99 0 0 0-4.97 11.15V482h-30V255.02a15.03 15.03 0 0 0-7.94-13.24 15.04 15.04 0 0 0-15.42.79 529.62 529.62 0 0 1-58.35 33.98 14.99 14.99 0 0 0-8.29 13.42V482h-30V315.55a15.01 15.01 0 0 0-6.36-12.27 15.1 15.1 0 0 0-13.68-1.86 527.78 527.78 0 0 1-58.34 17.08A15.01 15.01 0 0 0 151 333.12V482h-30V343.47a15.02 15.02 0 0 0-5.01-11.2 14.8 14.8 0 0 0-11.69-3.7A523.01 523.01 0 0 1 46 331.92a15 15 0 0 0-14.99 15V482H15a15 15 0 1 0 0 30h482a15 15 0 1 0 0-30z" data-original="#000000"/>
  </g>
</svg>
