<svg xmlns="http://www.w3.org/2000/svg" xml:space="preserve" width="512" height="512" style="enable-background:new 0 0 512 512">
  <g fill="#f07b2b">
    <path d="M447.5 64.5C405.93 22.9 350.64 0 291.82 0s-114.1 22.9-155.7 64.5a224.55 224.55 0 0 0-8.86 9.38 7.51 7.51 0 1 0 11.23 10 209.75 209.75 0 0 1 8.26-8.76c38.75-38.75 90.27-60.1 145.07-60.1s106.32 21.35 145.07 60.1c80 79.99 80 210.14 0 290.14a203.82 203.82 0 0 1-145.07 60.09 203.81 203.81 0 0 1-145.07-60.1 205.44 205.44 0 0 1-59.17-125.67 205.67 205.67 0 0 1 33.2-132.74 7.52 7.52 0 0 0-12.53-8.32A220.75 220.75 0 0 0 72.61 241a220.4 220.4 0 0 0 40.2 107.36l-22.08 22.07a7.51 7.51 0 0 0-10.62 0l-67.4 67.4a43.5 43.5 0 0 0 0 61.46c8.47 8.47 19.6 12.71 30.73 12.71s22.26-4.24 30.73-12.7l19.05-19.06a7.51 7.51 0 1 0-10.63-10.63l-19.05 19.05c-5.37 5.37-12.5 8.33-20.1 8.33s-14.74-2.96-20.1-8.33-8.33-12.5-8.33-20.1 2.95-14.73 8.32-20.1l62.1-62.09 40.2 40.2-21.79 21.79a7.51 7.51 0 1 0 10.63 10.63l27.1-27.1a7.51 7.51 0 0 0 0-10.62l22.03-22.03c37.13 26.71 81.56 41.14 128.21 41.14 58.81 0 114.1-22.9 155.7-64.5S512 279 512 220.18s-22.9-114.1-64.5-155.69zM130.95 410.63l-29.58-29.59 20.68-20.67a219.42 219.42 0 0 0 14.07 15.5 224.4 224.4 0 0 0 15.5 14.1z" data-original="#000000"/>
    <path d="M368.69 380.4a177.27 177.27 0 0 0 48.74-34.6c69.27-69.26 69.27-181.96 0-251.23-69.27-69.27-181.97-69.26-251.24 0-69.26 69.27-69.26 181.97 0 251.24a178.05 178.05 0 0 0 125.83 52 177.38 177.38 0 0 0 47.27-6.4 7.51 7.51 0 0 0-4-14.49 163.05 163.05 0 0 1-158.47-41.74c-63.4-63.4-63.4-166.58 0-229.98 63.4-63.4 166.57-63.4 229.98 0 63.4 63.4 63.4 166.57 0 229.98a162.3 162.3 0 0 1-44.61 31.66 7.51 7.51 0 0 0 6.5 13.55z" data-original="#000000"/>
    <path d="M300.87 185.94a7.51 7.51 0 1 0 0-15.03h-35.2a7.51 7.51 0 0 0-7.51 7.52v83.52a7.51 7.51 0 0 0 7.51 7.51h35.2a7.51 7.51 0 1 0 0-15.03h-27.68V227.7h25.08a7.51 7.51 0 1 0 0-15.03h-25.08v-26.73zm-89.09 68.88c-9.21 0-18.1-3.75-23.8-10.03a7.51 7.51 0 0 0-10.61-.52 7.51 7.51 0 0 0-.53 10.62c8.5 9.36 21.56 14.96 34.95 14.96 16.03 0 30-10.52 32.49-24.46 2.87-16.1-9.78-26.87-22.57-31.59-10.85-4-20.91-8.37-23.45-9.48a8.8 8.8 0 0 1-3.51-8.54c.61-4.3 3.91-7.74 8.82-9.21 13.53-4.08 25.75 5.73 25.99 5.92a7.52 7.52 0 0 0 9.64-11.53c-.74-.63-18.48-15.25-39.96-8.79-10.5 3.17-17.92 11.4-19.37 21.48a23.8 23.8 0 0 0 10.61 23.56c.33.21.68.4 1.04.56.49.22 12 5.35 24.99 10.14 9.31 3.43 14.04 8.84 12.97 14.84-1.04 5.85-7.6 12.07-17.7 12.07zm203.32-34.63a49.72 49.72 0 0 0-49.66-49.66c-27.39 0-49.66 22.28-49.66 49.66s22.27 49.66 49.66 49.66a49.71 49.71 0 0 0 49.66-49.66zm-84.3 0a34.67 34.67 0 0 1 34.64-34.63c19.1 0 34.63 15.53 34.63 34.63s-15.54 34.63-34.63 34.63a34.67 34.67 0 0 1-34.63-34.63z" data-original="#000000"/>
  </g>
</svg>
