<svg xmlns="http://www.w3.org/2000/svg" xml:space="preserve" width="512" height="512" style="enable-background:new 0 0 512 512" viewBox="0 0 60 60">
  <g fill="#f07b2b">
    <path d="M57 0H25a3 3 0 0 0-3 3v21a3 3 0 0 0 3 3h3v5a1.99 1.99 0 0 0 1.13 1.8c.26.13.56.2.86.2a2.1 2.1 0 0 0 1.3-.47L38.34 27H57a3 3 0 0 0 3-3V3a3 3 0 0 0-3-3zm1 24a1 1 0 0 1-1 1H38.34c-.47 0-.93.17-1.29.47L30 32v-5a2 2 0 0 0-2-2h-3a1 1 0 0 1-1-1V3a1 1 0 0 1 1-1h32a1 1 0 0 1 1 1zm-.3 12.32a3.15 3.15 0 0 0-2.4.28l-1.62.92-.05-.06a5.02 5.02 0 0 0-5.25-1.15l-8.17 3.08-19.2-3.28c-1.67-.26-3.4-.1-5 .48l-4.08 1.77A3 3 0 0 0 9 36H3a3 3 0 0 0-3 3v14a3 3 0 0 0 3 3h6a3 3 0 0 0 2.98-2.8 1.9 1.9 0 0 1 .6.07l20.37 6.52a5.03 5.03 0 0 0 4.52-.85l21.33-17.1a3.2 3.2 0 0 0 1.2-2.48 3.23 3.23 0 0 0-.4-1.54 3.15 3.15 0 0 0-1.9-1.5zM34.4 47.89 31.35 46h7.31l-3.32 1.88a1 1 0 0 1-.94.01zm14.67-9.71a3 3 0 0 1 2.76.38l-7 3.95a3.1 3.1 0 0 0-.12-.6l-.07-.17a3.07 3.07 0 0 0-.17-.4l-.1-.16a3.09 3.09 0 0 0-.3-.4c-.01-.03-.03-.06-.06-.08a3.18 3.18 0 0 0-.44-.4l-.03-.03zM10 53a1 1 0 0 1-1 1H3a1 1 0 0 1-1-1V39a1 1 0 0 1 1-1h6a1 1 0 0 1 1 1v.78l-.01.07.01 12.52zm47.55-12.72L36.24 57.37a3.02 3.02 0 0 1-2.7.5l-20.35-6.5a3.9 3.9 0 0 0-1.16-.18H12V40.5l4.75-2.05a7.99 7.99 0 0 1 3.94-.37l19.44 3.32a.63.63 0 0 0 .07.01l1.67.28c.56.1.97.58.98 1.15 0 .3-.11.6-.33.81-.22.22-.52.35-.83.35H23.85a1 1 0 0 0 0 2h3.71l5.82 3.61c.23.13.47.23.72.3.16.03.31.05.47.05l.29.04c.2 0 .4-.03.6-.08l.15-.01c.25-.07.49-.16.71-.29L54 39.63l2.28-1.29a1.16 1.16 0 0 1 1.27 1.94z" data-original="#000000"/>
    <path d="M35.3 14.7a1 1 0 0 0 1.4-1.4L33.42 10l3.3-3.3a1 1 0 1 0-1.42-1.4l-4 4a1 1 0 0 0 0 1.4zm10 0a1 1 0 0 0 1.4 0l4-4a1 1 0 0 0 0-1.4l-4-4a1 1 0 0 0-1.4 1.4l3.29 3.3-3.3 3.3a1 1 0 0 0 0 1.4zm-5.54.27a1 1 0 0 0 1.2-.73l2-8a1 1 0 0 0-1.93-.48l-2 8a1 1 0 0 0 .73 1.21zM53 17h-2a1 1 0 0 0 0 2h2a1 1 0 0 0 0-2zm-24 2h17a1 1 0 0 0 0-2H29a1 1 0 0 0 0 2zm24 2h-1a1 1 0 0 0 0 2h1a1 1 0 0 0 0-2zm-5 0H36a1 1 0 0 0 0 2h12a1 1 0 0 0 0-2zm-16 0h-3a1 1 0 0 0 0 2h3a1 1 0 0 0 0-2zM7 40H5a1 1 0 0 0 0 2h2a1 1 0 0 0 0-2zm0 10H5a1 1 0 0 0 0 2h2a1 1 0 0 0 0-2z" data-original="#000000"/>
  </g>
</svg>
