<svg xmlns="http://www.w3.org/2000/svg" xml:space="preserve" width="512" height="512" style="enable-background:new 0 0 512 512">
  <path fill="#f07b2b" fill-rule="evenodd" d="m386.9 330.48-17.52-6.85a38.75 38.75 0 0 0-40.05 6.87l-30.68 26.73-2.65-1.33c-70.8-35.56-131.51-96.29-167.07-167.08l-1.33-2.65 26.69-30.65a39.49 39.49 0 0 0 8.21-15.05l1.76-6.1L311.64 243.1a25.24 25.24 0 0 0 30.1 0L503.8 123.55v206.93zm62.62 53.11-89.83-35.28a12.16 12.16 0 0 0-12.92 2.17l-15.34 13.34 5.7 3.01a494.82 494.82 0 0 0 110.25 42.37l3.01.76 1.74-2.57c1.12-1.66 2.22-3.34 3.33-5a12.67 12.67 0 0 0-5.95-18.8zM53.57 57.63l-1.79-6.39-5.2 4.11a459.64 459.64 0 0 0-32.96 28.37A42.66 42.66 0 0 0 .4 121.12c21.57 165.44 197.83 341.77 363.3 363.31a42.7 42.7 0 0 0 37.39-13.25 463.29 463.29 0 0 0 28.4-33l4.09-5.2-6.37-1.78a524.68 524.68 0 0 1-116.95-48.84l-1.67-.95-1.84.58a28.47 28.47 0 0 1-21.28-1.72 400.3 400.3 0 0 1-105.04-75.88 401.06 401.06 0 0 1-75.88-105 28.72 28.72 0 0 1-1.74-21.35l.57-1.82-.94-1.67A525.37 525.37 0 0 1 53.58 57.62zm35.65-30.46a12.24 12.24 0 0 0-6.75 2.13l-.07.04-4.93 3.32-2.57 1.73.75 3.01a495.92 495.92 0 0 0 42.3 110.3l3 5.71 13.32-15.29a12.2 12.2 0 0 0 2.23-12.96l-35.26-89.82a12 12 0 0 0-7.94-7.48 13.04 13.04 0 0 0-4.08-.69zM512 84.55H149.14l3.06 8 174.5 128.67z" data-original="#0291f7"/>
</svg>
