<svg xmlns="http://www.w3.org/2000/svg" xml:space="preserve" width="512" height="512" style="enable-background:new 0 0 512 512" viewBox="0 0 24 24">
  <path fill="#f07b2b" d="M17.5 0c-2.35 0-4.36 2.19-5.5 5.54C10.86 2.19 8.85 0 6.5 0 2.85 0 0 5.27 0 12s2.85 12 6.5 12c2.35 0 4.36-2.19 5.5-5.54 1.14 3.35 3.15 5.54 5.5 5.54 3.65 0 6.5-5.27 6.5-12S21.14 0 17.5 0zm-11 22c-1.48 0-3.08-1.99-3.91-5.18A2.49 2.49 0 0 0 6 14.5a2.5 2.5 0 0 0-3.99-2L2 12C2 6.1 4.37 2 6.5 2S11 6.1 11 12 8.63 22 6.5 22zm11 0c-1.48 0-3.08-1.99-3.91-5.18A2.49 2.49 0 0 0 17 14.5a2.5 2.5 0 0 0-3.99-2L13 12c0-5.9 2.37-10 4.5-10S22 6.1 22 12s-2.37 10-4.5 10z" data-original="#000000"/>
</svg>
