<svg xmlns="http://www.w3.org/2000/svg" xml:space="preserve" width="512" height="512" style="enable-background:new 0 0 512 512">
  <g fill="#f07b2b">
    <path d="M176 160h96v16h-96zm112 0h16v16h-16zm32 0h16v16h-16zm-144 64h96v16h-96zm112 0h16v16h-16zm32 0h16v16h-16zm-144 64h96v16h-96zm112 0h16v16h-16zm32 0h16v16h-16z" data-original="#000000"/>
    <path d="M464 344a32.06 32.06 0 0 0-30.99 24H344v-32a24.03 24.03 0 0 0 24-24v-24h48a80 80 0 1 0-13.04-158.94A152.03 152.03 0 0 0 121.84 96.5 97.27 97.27 0 0 0 112 96a96 96 0 0 0 0 192h32v24a24.03 24.03 0 0 0 24 24v32H78.99a32 32 0 1 0 0 16H176a8 8 0 0 0 8-8v-40h16v64h-64a8 8 0 0 0-8 8v25.01a32 32 0 1 0 16 0V416h64a8 8 0 0 0 8-8v-72h32v81.01a32 32 0 1 0 16 0V336h32v72a8 8 0 0 0 8 8h64v17.01a32 32 0 1 0 16 0V408a8 8 0 0 0-8-8h-64v-64h16v40a8 8 0 0 0 8 8h97.01A32 32 0 1 0 464 344zM48 392a16 16 0 1 1 16-16 16.02 16.02 0 0 1-16 16zm104 72a16 16 0 1 1-16-16 16.02 16.02 0 0 1 16 16zm120-16a16 16 0 1 1-16-16 16.02 16.02 0 0 1 16 16zm120 16a16 16 0 1 1-16-16 16.02 16.02 0 0 1 16 16zM160 184v-32a8 8 0 0 1 8-8h176a8 8 0 0 1 8 8v32a8 8 0 0 1-8 8H168a8 8 0 0 1-8-8zm0 64v-32a8 8 0 0 1 8-8h176a8 8 0 0 1 8 8v32a8 8 0 0 1-8 8H168a8 8 0 0 1-8-8zM32 192a80.1 80.1 0 0 1 80-80 80.94 80.94 0 0 1 13.1 1.06 8 8 0 0 0 8.5-4.4 136.04 136.04 0 0 1 255.55 31.52 8 8 0 0 0 9.96 6.08A64 64 0 1 1 416 272h-49.38a24.02 24.02 0 0 0-4.75-8 23.9 23.9 0 0 0 6.13-16v-32a23.9 23.9 0 0 0-6.13-16 23.9 23.9 0 0 0 6.13-16v-32a24.03 24.03 0 0 0-24-24H168a24.03 24.03 0 0 0-24 24v32a23.9 23.9 0 0 0 6.13 16 23.9 23.9 0 0 0-6.13 16v32a23.9 23.9 0 0 0 6.13 16 24.02 24.02 0 0 0-4.75 8H112a80.1 80.1 0 0 1-80-80zm128 120v-32a8 8 0 0 1 8-8h176a8 8 0 0 1 8 8v32a8 8 0 0 1-8 8H168a8 8 0 0 1-8-8zm304 80a16 16 0 1 1 16-16 16.02 16.02 0 0 1-16 16z" data-original="#000000"/>
  </g>
</svg>
