<svg xmlns="http://www.w3.org/2000/svg" xml:space="preserve" width="512" height="512" style="enable-background:new 0 0 512 512" viewBox="0 0 682.67 682.67">
  <defs>
    <clipPath id="a">
      <path fill="#f07b2b" d="M0 512h512V0H0Z" data-original="#000000"/>
    </clipPath>
  </defs>
  <g fill="none" stroke="#f07b2b" stroke-linecap="round" stroke-linejoin="round" stroke-miterlimit="10" stroke-width="20.18" clip-path="url(#a)" transform="matrix(1.33333 0 0 -1.33333 0 682.67)">
    <path d="M0 0h455.52" data-original="#000000" style="stroke-width:20.176;stroke-linecap:round;stroke-linejoin:round;stroke-miterlimit:10;stroke-dasharray:none;stroke-opacity:1" transform="translate(10 356.67)"/>
    <path d="M0 0c13.1 0 23.78 10.65 23.78 23.74S13.1 47.48 0 47.48c-13.07 0-23.75-10.65-23.75-23.74S-13.07 0 0 0Z" data-original="#000000" style="stroke-width:20.176;stroke-linecap:round;stroke-linejoin:round;stroke-miterlimit:10;stroke-dasharray:none;stroke-opacity:1" transform="translate(93.5 399.23)"/>
    <path d="M0 0h89.46a23.81 23.81 0 0 0 23.75-23.74 23.81 23.81 0 0 0-23.75-23.74H0a23.81 23.81 0 0 0-23.75 23.74A23.81 23.81 0 0 0 0 0Z" data-original="#000000" style="stroke-width:20.176;stroke-linecap:round;stroke-linejoin:round;stroke-miterlimit:10;stroke-dasharray:none;stroke-opacity:1" transform="translate(299.95 446.71)"/>
    <path d="M0 0c13.1 0 23.78 10.65 23.78 23.74S13.1 47.48 0 47.48c-13.07 0-23.75-10.65-23.75-23.74S-13.07 0 0 0Z" data-original="#000000" style="stroke-width:20.176;stroke-linecap:round;stroke-linejoin:round;stroke-miterlimit:10;stroke-dasharray:none;stroke-opacity:1" transform="translate(181.2 399.23)"/>
    <path d="m0 0-20.01-83.75" data-original="#000000" style="stroke-width:20.176;stroke-linecap:round;stroke-linejoin:round;stroke-miterlimit:10;stroke-dasharray:none;stroke-opacity:1" transform="translate(162.42 279.76)"/>
    <path d="m0 0 28.32 31.79a3.87 3.87 0 0 1 0 5.04L0 68.62" data-original="#000000" style="stroke-width:20.176;stroke-linecap:round;stroke-linejoin:round;stroke-miterlimit:10;stroke-dasharray:none;stroke-opacity:1" transform="translate(208.5 203.57)"/>
    <path d="m0 0-28.32 31.79a3.86 3.86 0 0 0 0 5.04L0 68.62" data-original="#000000" style="stroke-width:20.176;stroke-linecap:round;stroke-linejoin:round;stroke-miterlimit:10;stroke-dasharray:none;stroke-opacity:1" transform="translate(96.31 203.57)"/>
    <path d="M0 0a96.76 96.76 0 0 0 30.39-12.52l8.19 8.16a12.53 12.53 0 0 0 17.69 0l12.9-12.9a12.51 12.51 0 0 0 0-17.67L61-43.12a96.57 96.57 0 0 0 12.47-30.09h11.48c6.9 0 12.53-5.64 12.53-12.5v-18.27c0-6.85-5.64-12.49-12.53-12.49H73.42A96.87 96.87 0 0 0 61-146.39l8.16-8.16a12.51 12.51 0 0 0 0-17.67l-12.9-12.92a12.53 12.53 0 0 0-17.68 0l-8.2 8.16A96.7 96.7 0 0 0 .35-189.42v-11.62c0-6.88-5.64-12.52-12.5-12.52h-18.28c-6.86 0-12.5 5.64-12.5 12.52v11.65a96.9 96.9 0 0 0-30 12.4l-8.16-8.15a12.53 12.53 0 0 0-17.69 0l-12.92 12.91a12.56 12.56 0 0 0 0 17.68l8.19 8.16a96.25 96.25 0 0 0-12.44 29.92h-11.6c-6.88 0-12.5 5.64-12.5 12.5v18.27c0 6.85 5.62 12.5 12.5 12.5h11.57a96.76 96.76 0 0 0 12.27 29.77l-8.22 8.24a12.51 12.51 0 0 0 0 17.68l12.9 12.9a12.53 12.53 0 0 0 17.69 0l8.13-8.11A97.26 97.26 0 0 0-43.28-.17v11.53c0 6.88 5.6 12.52 12.5 12.52h18.25C-5.64 23.88 0 18.25 0 11.36Z" data-original="#000000" style="stroke-width:20.176;stroke-linecap:round;stroke-linejoin:round;stroke-miterlimit:10;stroke-dasharray:none;stroke-opacity:1" transform="translate(404.52 235.56)"/>
    <path d="M0 0a51.53 51.53 0 1 0 0-103.04A51.53 51.53 0 1 0 0 0Z" data-original="#000000" style="stroke-width:20.176;stroke-linecap:round;stroke-linejoin:round;stroke-miterlimit:10;stroke-dasharray:none;stroke-opacity:1" transform="translate(383.23 192.24)"/>
    <path d="M0 0h-59.19c-20.46 0-37.24 20.03-37.24 44.48v281.95c0 24.48 16.75 44.48 37.24 44.48h381.03c20.5 0 37.25-20.03 37.25-44.48V107.37M170.53 0H89.37" data-original="#000000" style="stroke-width:20.176;stroke-linecap:round;stroke-linejoin:round;stroke-miterlimit:10;stroke-dasharray:none;stroke-opacity:1" transform="translate(106.43 119.09)"/>
    <path d="M0 0h.2" data-original="#000000" style="stroke-width:20.176;stroke-linecap:round;stroke-linejoin:round;stroke-miterlimit:10;stroke-dasharray:none;stroke-opacity:1" transform="translate(151.22 119.09)"/>
  </g>
</svg>
