<svg xmlns="http://www.w3.org/2000/svg" xml:space="preserve" width="512" height="512" style="enable-background:new 0 0 512 512" viewBox="0 0 512.11 512.11">
  <g fill="none" stroke="#f07b2b" stroke-linecap="round" stroke-linejoin="round" stroke-miterlimit="10">
    <path stroke-width="30" d="m176.88 390-75.52 89.7a48.93 48.93 0 0 1-72.03 3.08h0a48.93 48.93 0 0 1 3.08-72.03l89.84-75.64m-66.57 63.4 59.25 59.25" data-original="#000000" style="stroke-width:30;stroke-linecap:round;stroke-linejoin:round;stroke-miterlimit:10"/>
    <circle cx="292.04" cy="220.07" r="205.07" stroke-width="30" data-original="#000000" style="stroke-width:30;stroke-linecap:round;stroke-linejoin:round;stroke-miterlimit:10"/>
    <path stroke-width="27" d="M296.73 173.85h-40.07v95.1h40.07m-2.96-47.55h-37.11m-53.28-38.12s-17.22-14.47-37.53-8.36c-18.65 5.62-21.25 27.12-7.76 35.92 0 0 13.23 5.9 27.92 11.32 35.34 13.03 20.12 47.23-8.34 47.23-14.24 0-26.2-6.24-33.44-14.23" data-original="#000000" style="stroke-width:27;stroke-linecap:round;stroke-linejoin:round;stroke-miterlimit:10"/>
    <circle cx="391.86" cy="221.4" r="47.99" stroke-width="27" data-original="#000000" style="stroke-width:27;stroke-linecap:round;stroke-linejoin:round;stroke-miterlimit:10"/>
  </g>
</svg>
