<svg xmlns="http://www.w3.org/2000/svg" xml:space="preserve" width="512" height="512" style="enable-background:new 0 0 512 512">
  <g fill="#f07b2b">
    <path d="M373 0H139C62 0 0 62 0 139v234c0 77 62 139 139 139h234c77 0 139-62 139-139V139C512 62 450 0 373 0zm109 373c0 60-49 109-109 109H139c-60 0-109-49-109-109V139C30 79 79 30 139 30h234c60 0 109 49 109 109zm0 0" data-original="#000000"/>
    <path d="M256 116a140 140 0 1 0 0 280 140 140 0 0 0 0-280zm0 250a110 110 0 1 1 0-220 110 110 0 0 1 0 220zM399 66a41 41 0 1 0 0 83 41 41 0 0 0 0-83zm0 53a11 11 0 1 1 0-23 11 11 0 0 1 0 23zm0 0" data-original="#000000"/>
  </g>
</svg>
