<svg xmlns="http://www.w3.org/2000/svg" xml:space="preserve" width="512" height="512" style="enable-background:new 0 0 512 512" viewBox="0 0 66 66">
  <g fill="#f07b2b" style="fill:none;stroke:#000;stroke-width:1.5;stroke-linecap:round;stroke-linejoin:round;stroke-miterlimit:10">
    <ellipse cx="44.7" cy="38.9" data-original="#000000" rx="8.3" ry="3.1"/>
    <path d="M53 39v15c0 1-4 3-8 3s-9-2-9-3V39c0 2 4 3 9 3s8-1 8-3zm11 5c0 2-4 3-8 3h-3v-6h3c4 0 8 1 8 3z" data-original="#000000"/>
    <path d="M64 44v10c0 1-4 3-8 3l-6-1c2 0 3-1 3-2v-7h3c4 0 8-1 8-3zm-11 0c0 2-4 3-8 3s-9-1-9-3" data-original="#000000"/>
    <path d="M53 49c0 2-4 3-8 3s-9-1-9-3m28 0c0 2-4 3-8 3h-3" data-original="#000000"/>
    <path d="M64 44v10c0 1-4 3-8 3l-6-1-5 1c-5 0-9-2-9-3V39c0-2 4-3 9-3s8 1 8 3v1-1 2h3c4 0 8 1 8 3z" data-original="#000000"/>
    <path d="M64 49c0 2-4 3-8 3h-3M36 31l3 2-16 9h-1 0L3 31H2l16-10 4 2zm24-10-14 8-3-2-14-8-3-2 5-3 8-5h1l19 12z" data-original="#000000"/>
    <path d="m36 31-13 7h-2l-10-6v-2l11-7zm15-9-8 5-14-8 10-6h2l10 7v2z" data-original="#000000"/>
    <path d="m46 29-5 3-2 1-4-2-13-8-4-2 8-4 3 2 14 8zm-4-11h-4v3h4v-3M24 30h-4v2h4v-2M2 31v5l20 12 11-7m15-8 12-7v-5" data-original="#000000"/>
    <path d="M2 36v4l20 12 11-6m20-12 7-4v-4" data-original="#000000"/>
    <path d="M2 40v5l20 12 11-6m27-21v5l-4 3m-17-4v-1l7-4v4" data-original="#000000"/>
  </g>
</svg>
