<svg xmlns="http://www.w3.org/2000/svg" xml:space="preserve" width="512" height="512" style="enable-background:new 0 0 512 512">
  <g fill="#f07b2b">
    <path d="M488 300h-8v-69c0-11-6-21-14-27v-9c0-14-11-25-25-25h-5l22-32c7-11 4-25-7-33L303 4c-5-3-12-5-18-4a23 23 0 0 0-15 10L142 198h-36l9-87 1-2c11-4 21-12 27-22l3-1 56 6a7 7 0 1 0 1-15l-56-5c-6-1-12 2-16 7-5 8-12 13-20 17-6 2-10 7-11 14l-8 88H82L96 61c0-5 5-9 10-8l113 11a7 7 0 1 0 1-15L107 38c-13-1-24 8-26 21L70 170H52c-14 0-25 11-25 25v6c-11 6-19 17-19 30v249c0 17 15 32 32 32h408c17 0 32-15 32-32v-69h8c9 0 16-8 16-17v-78c0-9-7-16-16-16zm-47-115c6 0 11 4 11 10v4a33 33 0 0 0-4-1h-31l9-13h15zM282 19a9 9 0 0 1 6-4 9 9 0 0 1 7 1l148 101c4 3 5 9 3 13l-47 68h-11l23-33c3-6 4-13 0-18-4-8-6-17-5-25 1-7-2-13-7-17l-77-52c-5-4-12-4-18-1-7 4-16 6-25 5-6-1-13 2-17 7l-91 134h-11L282 19zm3 123c-31 0-58 25-60 56h-37l86-126a3 3 0 0 1 3-1c12 2 24-1 34-6h3l77 52 1 3c-2 11 1 24 7 34v3l-29 41h-25c-2-31-28-56-60-56zm46 56h-91a46 46 0 0 1 91 0zm-289-3c0-6 4-10 10-10h17l-1 13H42v-3zm-19 36c0-10 8-18 17-18h408c9 0 17 8 17 18v20H23v-20zm442 249c0 9-8 17-17 17H40c-9 0-17-8-17-17v-21h39a7 7 0 1 0 0-14H23V266h442v34h-69c-22 0-41 13-50 31v1l-3 7a55 55 0 0 0-2 16c0 31 24 56 55 56h69v34H109a7 7 0 1 0 0 14h356v21zm24-86-1 2h-92c-15 0-29-9-36-21a40 40 0 0 1-2-6c-2-4-3-9-3-14a41 41 0 0 1 4-17l1-2c7-13 21-22 36-22h92l1 2v78z" data-original="#000000"/>
    <path d="M398 326a30 30 0 1 0 0 59 30 30 0 0 0 0-59zm0 44a15 15 0 1 1 0-30 15 15 0 0 1 0 30z" data-original="#000000"/>
  </g>
</svg>
